<?xml version="1.0" standalone="no"?>
<!DOCTYPE svg PUBLIC "-//W3C//DTD SVG 20010904//EN"
 "http://www.w3.org/TR/2001/REC-SVG-20010904/DTD/svg10.dtd">
<svg version="1.0" xmlns="http://www.w3.org/2000/svg"
 width="706.000000pt" height="706.000000pt" viewBox="0 0 706.000000 706.000000"
 preserveAspectRatio="xMidYMid meet">
<metadata>
Created by potrace 1.14, written by Peter Selinger 2001-2017
</metadata>
<g transform="translate(0.000000,706.000000) scale(0.100000,-0.100000)"
fill="#000000" stroke="none">
<path d="M3512 6463 l3 -157 173 -89 c96 -49 175 -87 177 -85 6 6 7 43 6 175
l-1 133 -180 90 -181 90 3 -157z m172 37 c76 -38 143 -73 149 -79 8 -6 11 -47
10 -123 0 -62 -1 -116 -2 -119 -1 -3 -68 29 -151 70 l-150 76 0 123 c0 67 1
122 3 122 2 0 65 -31 141 -70z"/>
<path d="M3263 6522 l-173 -87 0 -152 c0 -141 1 -152 18 -145 9 4 90 44 180
90 l162 82 0 150 c0 83 -3 150 -7 149 -5 0 -86 -39 -180 -87z"/>
<path d="M3907 6412 c-2 -4 -4 -74 -3 -155 l1 -148 173 -90 c96 -49 176 -89
178 -89 2 0 3 71 2 158 l-3 157 -172 87 c-95 48 -174 84 -176 80z m176 -113
c78 -39 144 -73 146 -75 3 -3 5 -187 2 -235 -1 -12 -37 3 -148 60 l-148 76 -3
123 c-1 67 0 122 3 122 3 0 69 -32 148 -71z"/>
<path d="M2869 6324 l-165 -85 -1 -154 0 -154 171 86 c94 48 173 88 175 90 9
7 5 297 -4 299 -6 2 -85 -35 -176 -82z"/>
<path d="M3268 6176 l-178 -91 0 -177 c0 -165 1 -177 18 -171 24 10 325 164
335 173 4 3 6 85 5 181 l-3 175 -177 -90z"/>
<path d="M3510 6088 l0 -183 180 -91 180 -90 -2 184 -3 184 -173 89 c-95 49
-175 89 -178 89 -2 0 -4 -82 -4 -182z m183 60 c78 -39 144 -73 146 -75 5 -4 8
-285 4 -295 -2 -4 -71 27 -153 70 l-150 77 0 148 c0 81 3 147 6 147 3 0 69
-32 147 -72z"/>
<path d="M2490 6131 l-175 -88 -1 -152 c0 -83 2 -151 5 -151 3 -1 83 38 176
86 l171 87 -1 154 c0 84 0 153 0 153 0 0 -79 -40 -175 -89z"/>
<path d="M4293 6064 l2 -156 175 -89 c96 -49 176 -89 178 -89 1 0 2 71 2 158
l0 157 -174 88 c-96 48 -176 87 -180 87 -3 0 -4 -70 -3 -156z m327 -159 c0
-69 -3 -125 -7 -124 -5 0 -71 33 -148 72 l-140 73 -2 127 -2 127 149 -75 150
-75 0 -125z"/>
<path d="M3904 5888 l1 -182 170 -88 c94 -48 173 -88 178 -88 4 0 6 82 5 182
l-3 182 -170 88 c-93 48 -173 87 -176 88 -3 0 -5 -82 -5 -182z m325 -14 c3 -3
5 -150 2 -261 l-1 -42 -150 77 -149 77 0 151 0 151 147 -75 c81 -41 149 -76
151 -78z"/>
<path d="M2869 5973 l-166 -85 0 -178 0 -179 171 86 c94 47 173 87 175 89 9 8
4 348 -5 351 -5 1 -84 -36 -175 -84z"/>
<path d="M4680 5871 l0 -159 180 -91 180 -92 0 161 0 160 -180 90 -180 90 0
-159z m210 22 l115 -59 3 -127 c1 -70 -1 -127 -5 -127 -4 1 -71 34 -148 74
l-140 74 -3 126 -3 127 33 -15 c18 -7 85 -40 148 -73z"/>
<path d="M2095 5931 l-170 -86 0 -147 c0 -81 3 -149 6 -152 3 -3 81 33 175 81
l170 86 -1 148 c0 81 -2 150 -5 152 -3 3 -82 -34 -175 -82z"/>
<path d="M3510 5687 l0 -182 180 -92 180 -91 0 184 0 184 -180 90 -180 90 0
-183z m173 66 c73 -37 139 -73 147 -79 12 -10 15 -39 13 -151 0 -76 -2 -142
-2 -146 -1 -4 -68 27 -151 69 l-150 76 0 149 c0 82 3 149 6 149 3 0 65 -30
137 -67z"/>
<path d="M4292 5689 l3 -181 170 -88 c94 -49 173 -89 178 -89 4 -1 7 81 7 182
l0 182 -175 88 c-96 48 -177 87 -180 87 -3 0 -4 -81 -3 -181z m328 -161 c0
-82 -3 -148 -7 -148 -5 1 -71 33 -148 73 l-140 72 -2 152 -2 152 150 -77 149
-77 0 -147z"/>
<path d="M2490 5780 c-85 -44 -159 -81 -165 -83 -6 -2 -10 -74 -10 -184 l-1
-181 172 86 c95 47 174 93 176 102 9 36 2 334 -7 336 -6 2 -80 -33 -165 -76z"/>
<path d="M3258 5771 l-168 -86 0 -177 c0 -98 3 -178 8 -178 4 1 84 40 177 88
l170 88 3 177 c2 139 0 177 -10 175 -7 0 -88 -40 -180 -87z"/>
<path d="M5070 5672 l0 -159 180 -92 180 -92 0 163 0 163 -171 85 c-93 47
-174 87 -179 88 -6 2 -10 -59 -10 -156z m186 36 l144 -73 0 -127 c0 -98 -3
-126 -12 -122 -7 2 -74 35 -148 73 l-135 69 -3 126 c-1 69 0 126 4 126 3 0 71
-33 150 -72z"/>
<path d="M1710 5740 c-85 -44 -159 -81 -163 -82 -9 -4 -15 -303 -6 -312 2 -3
82 34 176 82 l171 87 0 152 c1 112 -3 153 -11 152 -7 0 -82 -36 -167 -79z"/>
<path d="M2105 5584 c-93 -48 -172 -89 -175 -91 -8 -7 -6 -344 2 -349 4 -3 83
34 176 82 l168 86 0 179 c0 99 0 179 0 179 -1 0 -77 -39 -171 -86z"/>
<path d="M3904 5490 c1 -105 5 -183 11 -188 6 -5 85 -48 178 -94 l167 -85 -2
184 -3 184 -174 90 c-96 49 -175 89 -176 89 -1 0 -1 -81 -1 -180z m179 59 c78
-40 143 -73 144 -74 4 -2 5 -107 4 -218 l-1 -88 -150 77 -150 77 1 149 c0 81
3 148 5 148 3 0 69 -32 147 -71z"/>
<path d="M4682 5489 l3 -180 175 -90 c96 -49 176 -89 177 -89 2 0 3 82 3 183
l0 182 -174 88 c-96 48 -177 87 -180 87 -4 0 -5 -81 -4 -181z m328 -161 c0
-90 -4 -148 -10 -146 -5 2 -72 35 -149 73 l-141 70 0 153 0 153 150 -77 150
-77 0 -149z"/>
<path d="M2869 5572 l-166 -86 0 -178 c0 -98 2 -178 4 -178 5 0 336 171 342
176 9 9 5 354 -4 353 -5 -1 -85 -40 -176 -87z"/>
<path d="M5460 5476 l0 -161 180 -92 180 -93 0 164 0 163 -180 90 -180 90 0
-161z m330 -166 l0 -130 -150 75 -150 75 0 130 0 130 150 -75 150 -75 0 -130z"/>
<path d="M1325 5544 c-88 -45 -163 -84 -168 -86 -8 -3 -14 -304 -7 -312 3 -2
82 35 175 82 l170 87 3 158 c1 86 -1 156 -5 156 -5 -1 -80 -39 -168 -85z"/>
<path d="M5070 5295 l0 -185 180 -90 180 -90 0 182 0 183 -180 92 -180 92 0
-184z m330 -165 c0 -83 -3 -150 -7 -149 -5 0 -71 33 -148 73 l-140 72 -3 152
-3 152 151 -75 150 -75 0 -150z"/>
<path d="M1715 5384 c-94 -47 -172 -88 -174 -90 -8 -8 -6 -354 2 -354 4 0 84
39 176 87 l169 88 0 177 c0 98 -1 178 -2 178 0 0 -78 -39 -171 -86z"/>
<path d="M3510 5288 l0 -184 180 -92 180 -93 0 184 0 184 -180 92 -180 92 0
-183z m176 61 c76 -39 144 -77 149 -84 13 -16 13 -290 0 -290 -6 0 -74 33
-152 73 l-143 72 0 150 c0 83 2 150 4 150 1 0 66 -32 142 -71z"/>
<path d="M4293 5288 l2 -183 170 -87 c94 -48 173 -87 178 -88 4 0 6 82 5 182
l-3 182 -170 87 c-93 49 -173 88 -177 89 -3 0 -6 -82 -5 -182z m182 60 l145
-73 0 -152 0 -153 -149 77 -149 77 0 148 c-1 81 1 148 3 148 3 0 70 -33 150
-72z"/>
<path d="M2479 5373 l-165 -86 0 -178 -1 -177 171 85 c94 47 173 89 176 93 10
16 5 343 -5 346 -6 2 -84 -36 -176 -83z"/>
<path d="M3263 5372 l-172 -87 0 -177 c-1 -98 1 -178 4 -178 3 0 84 39 180 88
l175 87 0 178 c0 97 -3 177 -7 177 -5 -1 -85 -40 -180 -88z"/>
<path d="M5850 5278 l0 -163 174 -87 c96 -49 177 -88 180 -88 3 0 6 72 6 160
l0 160 -180 90 -180 90 0 -162z m185 39 l140 -72 3 -133 3 -133 -151 76 -150
76 0 130 c0 71 3 129 8 128 4 0 70 -33 147 -72z"/>
<path d="M928 5344 l-168 -84 -1 -43 c-1 -100 0 -270 3 -272 2 -2 80 36 173
84 l170 87 3 157 c1 86 -1 157 -5 156 -5 0 -83 -38 -175 -85z"/>
<path d="M5460 5097 l0 -184 180 -92 180 -92 0 184 0 183 -180 92 -180 93 0
-184z m330 -167 c0 -83 -1 -150 -3 -150 -1 0 -68 33 -147 74 l-145 74 -3 151
-3 151 151 -75 150 -75 0 -150z"/>
<path d="M1320 5184 c-91 -47 -166 -87 -167 -88 -3 -2 -6 -302 -4 -338 1 -15
34 -1 176 69 l175 88 0 177 c0 98 -3 178 -7 178 -5 0 -82 -39 -173 -86z"/>
<path d="M2100 5180 l-175 -89 2 -173 c0 -95 1 -176 2 -179 1 -4 20 4 44 15
23 12 101 52 172 89 l130 66 0 180 c1 100 1 181 0 181 0 -1 -79 -41 -175 -90z"/>
<path d="M3909 5266 c-1 -1 -3 -83 -4 -183 -1 -169 0 -182 18 -190 16 -8 14
-11 -17 -26 -34 -16 -36 -16 -36 1 0 12 -52 43 -180 109 l-180 92 0 -184 c0
-154 2 -185 15 -192 12 -7 5 -14 -30 -31 -25 -12 -45 -17 -45 -12 0 16 -342
-159 -369 -189 -14 -15 -26 -21 -28 -14 -5 13 -324 -148 -355 -179 -11 -11
-25 -17 -32 -15 -7 3 -89 -35 -182 -83 l-169 -89 0 -175 c0 -97 2 -176 6 -176
3 0 40 18 82 39 54 29 77 36 80 27 8 -21 -4 -32 -88 -74 l-80 -40 -1 -176 c0
-97 4 -176 8 -176 5 0 84 39 177 86 l167 87 -1 73 c-1 73 -1 74 19 60 17 -11
20 -22 19 -65 l-3 -51 50 25 c27 14 53 25 58 25 7 0 667 320 693 336 4 2 12
-2 17 -9 8 -10 1 -28 -28 -73 l-40 -59 0 43 c0 23 -3 42 -7 42 -5 0 -86 -39
-180 -87 l-173 -88 0 -167 c0 -93 2 -168 5 -168 3 0 24 9 46 21 37 18 39 19
30 2 -40 -73 -29 -68 -1581 -835 -734 -364 -1164 -579 -1174 -588 -6 -6 1 -13
15 -19 13 -5 290 -141 614 -301 325 -161 707 -350 850 -420 143 -70 472 -232
730 -360 259 -128 566 -279 683 -336 l212 -104 1527 764 1527 763 -959 480
-960 480 -1 64 c-1 35 -2 125 -3 199 l-2 135 -168 85 c-93 46 -174 86 -180 88
-8 3 -11 -44 -11 -151 0 -128 -3 -156 -15 -161 -13 -5 -15 18 -15 167 l-1 172
-80 39 c-60 29 -77 42 -69 51 8 10 25 5 78 -22 l67 -34 5 143 c5 133 11 168
28 168 4 0 7 -75 7 -166 l0 -166 175 -89 c96 -49 176 -89 178 -89 1 0 2 82 2
183 l0 182 -170 85 c-93 47 -170 91 -170 98 0 6 5 12 11 12 6 0 82 -36 170
-80 l159 -80 0 183 0 184 -67 34 c-84 41 -79 37 -65 51 8 8 27 2 71 -21 l61
-31 1 122 c1 68 2 241 4 386 l2 263 -176 85 c-123 59 -183 83 -198 79 -18 -4
-23 -1 -23 15 0 15 -37 38 -175 108 -96 48 -176 88 -176 88z m201 -134 c158
-81 158 -83 -10 -167 -174 -87 -167 -91 -169 105 l-1 150 32 -14 c18 -8 85
-41 148 -74z m-266 -270 c10 -16 -11 -31 -139 -95 -99 -49 -135 -63 -148 -56
-15 9 -17 29 -17 160 l0 149 149 -75 c82 -41 152 -78 155 -83z m605 91 c77
-38 141 -71 141 -74 0 -3 -138 -74 -307 -157 -170 -83 -519 -255 -778 -382
-644 -317 -670 -330 -686 -329 -8 0 -74 30 -146 67 l-133 67 873 437 c479 240
877 437 883 437 7 1 75 -29 153 -66z m171 -337 l0 -233 -172 -252 c-95 -138
-257 -374 -360 -523 -251 -367 -767 -1119 -851 -1242 -38 -54 -67 -100 -65
-101 3 -3 507 245 1091 536 l357 179 0 -195 0 -195 -142 -69 c-135 -65 -372
-181 -1268 -624 -206 -101 -376 -184 -378 -182 -1 1 -5 105 -8 231 l-6 229 45
65 c97 142 496 727 629 920 77 113 285 418 464 679 178 261 322 476 320 478
-2 2 -73 -31 -157 -73 -85 -42 -194 -96 -244 -119 -49 -24 -196 -94 -325 -158
-449 -219 -712 -347 -714 -347 -2 0 -3 79 -2 176 l0 177 201 97 c211 103 724
356 1260 620 176 87 321 159 323 159 1 1 2 -104 2 -233z m0 -376 l0 -70 -35
17 c-19 9 -35 21 -35 26 0 9 60 97 67 97 2 0 3 -31 3 -70z m-544 -162 c-58
-84 -143 -209 -190 -278 -47 -69 -111 -163 -143 -210 -33 -47 -258 -376 -502
-732 -243 -357 -448 -648 -454 -648 -22 0 -297 95 -297 102 0 5 163 243 362
531 199 287 456 657 570 822 l208 300 267 132 c148 73 271 132 276 132 4 1
-40 -68 -97 -151z m484 22 l60 -30 0 -150 c0 -83 -2 -150 -5 -150 -7 0 -259
131 -267 139 -6 6 137 221 148 221 2 0 31 -14 64 -30z m-1760 -302 c0 -165 -1
-177 -17 -170 -10 4 -73 35 -140 70 l-123 62 0 179 0 179 140 -71 140 -72 0
-177z m760 127 c-7 -9 -15 -13 -19 -10 -3 3 1 10 9 15 21 14 24 12 10 -5z
m1060 -406 c0 -82 -3 -149 -7 -149 -5 1 -71 33 -148 73 l-140 72 -2 152 -1
153 149 -76 149 -76 0 -149z m-387 134 l2 -91 -48 25 c-27 13 -47 28 -45 32 6
16 83 130 85 127 2 -2 4 -43 6 -93z m-3 -193 c6 -10 3 -260 -3 -266 -3 -3 -68
26 -145 65 l-141 70 71 105 71 105 71 -36 c39 -19 73 -39 76 -43z m390 -307
c0 -62 -3 -113 -7 -113 -5 0 -71 29 -148 64 l-140 63 -2 125 -3 126 150 -76
150 -77 0 -112z m-370 -14 c0 -3 -10 -11 -22 -16 -19 -9 -47 2 -173 64 -82 42
-151 77 -153 78 -2 2 2 12 9 23 11 18 19 15 175 -62 90 -44 164 -83 164 -87z
m-223 30 c79 -39 143 -73 141 -74 -18 -16 -588 -293 -582 -283 4 7 51 76 103
153 53 77 116 170 141 207 25 37 47 68 50 68 2 0 69 -32 147 -71z m-959 44
c-14 -16 -362 -518 -533 -768 -37 -55 -75 -108 -83 -118 -13 -15 -16 -58 -16
-262 l-1 -244 183 -77 c101 -43 188 -77 195 -77 7 0 190 88 407 196 217 107
628 310 913 450 284 141 517 262 518 269 0 7 1 70 2 141 1 70 4 127 7 127 3 0
420 -208 927 -462 l922 -462 -1495 -747 -1495 -748 -447 221 c-246 121 -600
296 -787 388 -187 92 -504 249 -705 348 -201 99 -534 263 -740 364 l-375 185
495 246 c272 135 857 426 1300 646 443 220 809 400 814 401 5 0 2 -8 -6 -17z
m1330 -117 c43 -19 104 -46 137 -61 l60 -27 -659 -330 c-362 -181 -660 -328
-661 -326 -2 2 56 89 128 194 l132 192 390 196 c214 108 391 196 393 196 2 0
38 -15 80 -34z m-1762 -876 l150 -50 3 -231 c1 -138 -1 -230 -7 -228 -5 2 -77
33 -161 69 l-151 64 0 213 c0 117 3 213 7 213 5 0 76 -23 159 -50z"/>
<path d="M4682 5089 l3 -181 170 -88 c94 -49 173 -89 178 -90 4 0 6 82 5 183
l-3 182 -170 87 c-93 48 -173 87 -178 88 -4 0 -6 -81 -5 -181z m328 -161 c0
-82 -3 -148 -6 -148 -3 0 -71 33 -150 73 l-144 72 0 152 0 152 150 -77 150
-77 0 -147z"/>
<path d="M2874 5173 l-171 -87 0 -178 c0 -98 2 -178 5 -178 2 0 81 39 173 87
106 54 169 92 170 102 4 74 3 315 -1 326 -4 10 -49 -9 -176 -72z"/>
<path d="M548 5154 l-167 -85 0 -159 c0 -139 1 -158 15 -153 26 10 309 155
317 162 4 4 6 78 5 163 l-3 156 -167 -84z"/>
<path d="M6242 5078 l3 -163 160 -82 c88 -45 165 -82 170 -83 9 0 12 317 3
325 -6 5 -329 165 -334 165 -2 0 -3 -73 -2 -162z m177 44 l135 -68 1 -120 c0
-65 -1 -124 -3 -131 -3 -8 -53 13 -143 60 l-139 72 0 128 c0 70 3 127 8 127 4
0 68 -31 141 -68z"/>
<path d="M5850 4897 l0 -183 180 -92 180 -93 0 185 0 185 -180 91 -180 90 0
-183z m182 59 l143 -74 3 -151 3 -151 -151 75 -150 75 0 150 c0 83 2 150 5
150 3 0 69 -33 147 -74z"/>
<path d="M932 4986 c-89 -46 -165 -86 -168 -89 -4 -4 -7 -158 -5 -314 l1 -43
175 87 175 88 0 177 c0 98 -3 178 -7 178 -5 -1 -81 -38 -171 -84z"/>
<path d="M1715 4984 c-93 -48 -172 -88 -174 -90 -2 -2 -4 -70 -3 -151 0 -219
0 -217 15 -206 6 6 73 41 147 79 74 37 147 76 161 86 l27 18 0 175 c-1 96 -1
175 -2 175 0 0 -77 -39 -171 -86z"/>
<path d="M5072 4889 l3 -181 173 -89 c95 -49 175 -89 178 -89 2 0 4 82 4 183
l0 182 -175 88 c-96 48 -177 87 -180 87 -3 0 -4 -81 -3 -181z m328 -161 c0
-81 -3 -148 -7 -148 -5 1 -71 33 -148 73 l-140 72 -3 153 -3 153 151 -77 150
-77 0 -149z"/>
<path d="M2479 4972 l-165 -85 0 -179 c1 -98 3 -178 6 -178 3 1 82 41 175 89
l170 88 0 177 c0 111 -4 176 -10 175 -5 -1 -85 -40 -176 -87z"/>
<path d="M3265 4970 l-170 -88 -3 -181 -2 -181 180 93 180 92 0 178 c0 97 -3
177 -7 176 -5 0 -84 -40 -178 -89z"/>
<path d="M5462 4693 l3 -185 165 -84 c91 -46 171 -86 178 -89 9 -3 12 36 12
178 l0 182 -180 92 -180 91 2 -185z m328 -163 c0 -83 -3 -150 -7 -150 -5 1
-71 34 -148 73 l-140 73 -3 152 -3 153 151 -76 150 -76 0 -149z"/>
<path d="M6240 4698 l0 -183 170 -87 c134 -69 170 -83 171 -70 0 24 0 324 0
339 -1 7 -77 51 -171 98 l-170 85 0 -182z m178 62 l137 -70 -1 -143 c-1 -78
-2 -145 -3 -150 0 -4 -64 24 -141 63 l-140 71 0 150 c0 82 3 149 6 149 3 0 67
-32 142 -70z"/>
<path d="M565 4799 c-77 -39 -150 -77 -162 -85 -22 -14 -23 -19 -23 -189 0
-96 3 -175 8 -175 4 0 79 38 167 84 l160 83 3 177 c1 97 -1 176 -5 176 -5 -1
-71 -33 -148 -71z"/>
<path d="M1322 4782 l-174 -88 1 -173 c0 -95 2 -175 4 -177 2 -3 81 35 176 83
l171 88 0 178 c0 97 -1 177 -2 177 -2 -1 -81 -40 -176 -88z"/>
<path d="M4682 4688 l3 -183 170 -87 c94 -48 173 -87 178 -88 4 0 6 81 5 181
l-3 181 -170 89 c-93 48 -173 88 -178 89 -4 0 -6 -82 -5 -182z m328 -165 l0
-152 -150 77 -150 76 0 151 0 151 150 -75 150 -76 0 -152z"/>
<path d="M2098 4776 c-86 -45 -160 -85 -164 -89 -4 -4 -8 -85 -8 -181 l-1
-173 25 11 c14 6 92 46 175 88 l150 76 0 176 c0 114 -3 176 -10 175 -5 0 -81
-37 -167 -83z"/>
<path d="M2875 4771 l-170 -88 -1 -176 c0 -98 2 -177 5 -177 3 1 82 40 176 88
l170 87 0 168 c0 93 -2 173 -5 177 -3 5 -82 -31 -175 -79z"/>
<path d="M5850 4495 l0 -185 180 -90 180 -90 0 182 0 183 -180 93 -180 92 0
-185z m188 57 l142 -72 0 -150 c0 -83 -2 -150 -4 -150 -2 0 -69 33 -148 74
l-143 73 -3 153 c-1 83 1 150 5 148 5 -2 72 -36 151 -76z"/>
<path d="M930 4583 c-91 -47 -167 -87 -169 -88 -4 -5 -3 -346 2 -351 2 -2 80
36 175 84 l172 87 0 178 c0 97 -3 177 -7 176 -5 0 -82 -39 -173 -86z"/>
<path d="M1720 4584 c-91 -47 -169 -89 -174 -94 -5 -5 -10 -87 -10 -183 l-1
-174 55 27 c30 14 110 54 176 88 l121 61 1 180 c0 100 -1 181 -2 181 0 0 -75
-39 -166 -86z"/>
<path d="M5071 4488 l0 -183 168 -85 c93 -46 174 -86 180 -88 8 -3 11 46 9
179 l-3 183 -170 88 c-93 48 -173 88 -177 88 -5 0 -8 -82 -7 -182z m329 -160
c0 -82 -3 -148 -6 -148 -3 0 -70 33 -150 72 l-144 73 0 152 0 152 150 -77 150
-77 0 -147z"/>
<path d="M2485 4572 l-170 -87 -1 -177 c0 -98 1 -178 3 -178 2 0 81 39 176 88
l172 87 0 178 c0 97 -2 177 -5 177 -3 -1 -81 -40 -175 -88z"/>
<path d="M5462 4293 l3 -185 173 -89 c95 -49 175 -89 178 -89 2 0 4 83 4 184
l0 184 -37 16 c-21 8 -102 49 -181 90 l-142 74 2 -185z m328 -165 c0 -82 -2
-148 -5 -148 -3 0 -70 33 -150 72 l-145 73 0 152 0 153 150 -78 150 -77 0
-147z"/>
<path d="M6240 4297 l0 -183 170 -88 c160 -82 170 -86 171 -64 1 30 1 320 0
335 -1 6 -77 50 -171 97 l-170 86 0 -183z m181 59 l134 -69 0 -148 c0 -128 -2
-148 -15 -144 -8 3 -72 35 -142 71 l-128 65 0 150 c0 83 4 149 8 147 5 -1 69
-34 143 -72z"/>
<path d="M545 4387 l-160 -82 -2 -177 c-2 -98 -1 -178 2 -178 3 0 80 37 170
83 l165 82 0 178 c0 97 -3 177 -7 177 -5 -1 -80 -38 -168 -83z"/>
<path d="M1460 4451 c-19 -9 -98 -49 -175 -89 l-140 -71 3 -172 c1 -95 4 -174
6 -177 3 -2 81 35 175 83 l171 88 0 178 c0 99 -1 179 -2 179 -2 -1 -19 -9 -38
-19z"/>
<path d="M4680 4288 l0 -183 180 -91 180 -92 -2 185 -3 185 -175 89 c-96 49
-176 89 -177 89 -2 0 -3 -82 -3 -182z m190 57 l139 -70 0 -153 1 -153 -150 76
-150 76 0 150 c0 105 3 150 11 147 6 -2 73 -35 149 -73z"/>
<path d="M2095 4373 l-170 -86 1 -173 c0 -96 2 -176 5 -178 2 -3 81 35 174 83
l170 88 0 176 c1 97 -2 177 -5 177 -3 0 -81 -39 -175 -87z"/>
<path d="M935 4184 c-93 -48 -172 -88 -174 -90 -5 -4 -3 -345 2 -350 3 -3 82
34 176 83 l171 88 0 177 c0 98 -1 178 -2 178 -2 0 -79 -39 -173 -86z"/>
<path d="M5070 4088 l0 -183 175 -87 c96 -49 177 -88 180 -88 3 0 4 81 3 181
l-3 180 -173 90 c-96 49 -175 89 -178 89 -2 0 -4 -82 -4 -182z m185 60 l145
-73 0 -153 0 -153 -150 78 -150 78 0 147 c0 82 2 148 5 148 3 0 70 -33 150
-72z"/>
<path d="M5852 4089 l3 -181 175 -89 c96 -49 176 -89 178 -89 1 0 2 82 2 183
l0 182 -174 88 c-96 48 -177 87 -180 87 -4 0 -5 -81 -4 -181z m328 -161 c0
-81 -2 -148 -5 -148 -4 0 -71 33 -150 73 l-144 72 -1 153 0 153 150 -77 150
-77 0 -149z"/>
<path d="M1725 4184 c-83 -42 -159 -82 -170 -89 -19 -11 -20 -22 -18 -181 1
-93 2 -172 2 -176 1 -3 79 33 174 82 l172 89 1 175 c1 97 -1 176 -5 176 -4 0
-74 -34 -156 -76z"/>
<path d="M6240 3896 l0 -184 143 -72 c78 -40 147 -76 152 -80 6 -5 19 -10 29
-12 19 -3 20 4 18 176 0 98 -2 179 -4 181 -2 1 -78 41 -170 88 l-168 87 0
-184z m178 61 c72 -37 132 -70 133 -75 4 -29 3 -292 -1 -293 -3 0 -66 31 -142
68 l-136 68 -1 153 c-1 85 2 152 7 150 4 -2 67 -34 140 -71z"/>
<path d="M545 3985 l-160 -83 -3 -176 c-1 -97 1 -176 5 -176 4 0 80 37 170 83
l163 82 0 178 c0 97 -3 177 -7 176 -5 0 -80 -38 -168 -84z"/>
<path d="M1330 3983 c-91 -46 -169 -88 -174 -93 -8 -8 -12 -339 -4 -349 3 -4
327 156 341 168 4 4 6 87 5 183 l-3 176 -165 -85z"/>
<path d="M4680 3888 l0 -183 180 -93 180 -93 0 184 0 184 -180 92 -180 92 0
-183z m184 56 l146 -75 0 -150 c0 -82 -1 -149 -2 -149 -2 0 -68 33 -148 74
l-145 75 -3 150 c-1 83 -1 151 1 151 2 0 70 -34 151 -76z"/>
<path d="M5462 3888 l3 -182 170 -88 c94 -48 173 -88 178 -88 4 0 6 82 5 182
l-3 182 -170 88 c-93 48 -173 87 -178 88 -4 0 -6 -82 -5 -182z m328 -165 l0
-152 -150 77 -150 77 0 151 0 152 150 -77 150 -76 0 -152z"/>
<path d="M2095 3971 l-170 -87 0 -168 c0 -92 2 -171 5 -176 3 -4 82 31 175 78
l170 87 0 173 c0 96 -2 175 -5 177 -3 2 -82 -36 -175 -84z"/>
<path d="M935 3783 c-93 -47 -171 -87 -173 -88 -2 -2 -3 -65 -3 -142 0 -227 0
-227 14 -215 6 5 85 46 175 91 l162 82 0 180 c0 98 -1 179 -2 179 -2 -1 -79
-40 -173 -87z"/>
<path d="M5070 3688 l0 -183 173 -88 c94 -48 175 -87 180 -87 4 0 7 81 7 180
l0 180 -172 87 c-95 48 -176 89 -180 91 -5 2 -8 -79 -8 -180z m185 58 l140
-72 3 -153 3 -152 -151 77 -150 76 0 149 c0 82 3 149 8 148 4 0 70 -33 147
-73z"/>
<path d="M5852 3689 l3 -181 170 -88 c94 -49 173 -89 178 -90 4 0 6 82 5 183
l-3 182 -170 87 c-93 48 -173 87 -178 88 -4 0 -6 -81 -5 -181z m328 -161 c0
-82 -2 -148 -5 -148 -3 0 -70 33 -150 72 l-145 73 0 152 0 152 150 -77 150
-77 0 -147z"/>
<path d="M1705 3772 l-169 -87 -1 -168 c0 -93 2 -173 5 -177 3 -5 82 31 175
79 l170 88 2 177 c1 97 -2 176 -5 176 -4 -1 -83 -40 -177 -88z"/>
<path d="M6242 3493 l3 -184 164 -85 c90 -46 166 -82 169 -79 6 6 6 355 0 359
-1 2 -78 41 -171 88 l-167 85 2 -184z m313 -155 c0 -82 -3 -148 -7 -148 -4 0
-69 30 -143 67 l-135 68 0 153 0 153 143 -73 142 -73 0 -147z"/>
<path d="M543 3583 l-163 -83 0 -180 0 -180 170 87 170 87 0 178 c0 98 -3 177
-7 177 -5 -1 -81 -40 -170 -86z"/>
<path d="M4680 3485 l0 -185 180 -90 180 -90 0 183 0 182 -180 93 -180 92 0
-185z m330 -166 c0 -82 -2 -149 -4 -149 -2 0 -69 33 -148 74 l-143 74 -3 152
-3 151 151 -76 150 -76 0 -150z"/>
<path d="M5460 3488 l0 -183 173 -87 c96 -49 177 -88 180 -88 4 0 6 81 5 181
l-3 181 -174 89 c-95 49 -175 89 -177 89 -2 0 -4 -82 -4 -182z m185 59 l140
-72 3 -153 3 -153 -151 77 -150 77 0 149 c0 81 3 148 8 148 4 -1 70 -33 147
-73z"/>
<path d="M1325 3579 c-88 -45 -164 -85 -169 -89 -6 -6 -12 -300 -7 -352 1 -4
79 32 174 81 l172 88 3 177 c1 97 -1 176 -5 176 -5 0 -80 -37 -168 -81z"/>
<path d="M2100 3571 l-175 -88 0 -177 c0 -97 2 -176 5 -176 3 0 82 38 175 86
l170 87 1 179 c0 98 0 178 -1 178 0 0 -79 -40 -175 -89z"/>
<path d="M2869 3563 l-166 -86 0 -164 c-1 -90 3 -163 8 -163 13 0 333 161 339
170 3 5 4 76 3 159 -1 178 -1 171 -10 171 -5 -1 -83 -40 -174 -87z"/>
<path d="M940 3384 c-91 -48 -169 -89 -173 -94 -7 -6 -10 -136 -8 -311 l1 -47
168 85 c92 47 170 89 175 92 4 4 6 87 5 184 l-3 176 -165 -85z"/>
<path d="M5070 3287 l0 -183 180 -93 180 -92 0 184 0 184 -180 92 -180 92 0
-184z m218 40 l112 -57 0 -150 c0 -83 -1 -150 -3 -150 -2 0 -68 33 -148 74
l-144 75 -3 150 -3 150 38 -17 c21 -10 89 -44 151 -75z"/>
<path d="M5850 3288 l0 -183 175 -87 c96 -49 177 -88 180 -88 3 0 4 81 3 181
l-3 181 -173 89 c-95 49 -174 89 -177 89 -3 0 -5 -82 -5 -182z m185 60 l145
-73 0 -152 0 -153 -150 78 -150 77 0 148 c0 81 2 147 5 147 3 0 70 -33 150
-72z"/>
<path d="M1706 3371 l-170 -88 0 -171 c1 -95 2 -174 5 -176 2 -3 81 34 175 82
l171 87 1 178 c0 97 -2 177 -6 177 -4 0 -83 -40 -176 -89z"/>
<path d="M2490 3370 l-175 -89 0 -165 -1 -165 31 13 c16 8 95 47 175 87 l145
74 0 168 c0 92 0 167 0 167 0 -1 -79 -41 -175 -90z"/>
<path d="M549 3184 l-167 -86 -1 -180 c-1 -99 2 -178 6 -176 32 14 320 162
326 167 4 4 6 87 5 184 l-3 176 -166 -85z"/>
<path d="M5460 3088 l0 -183 180 -92 180 -92 0 184 0 185 -180 90 -180 90 0
-182z m181 59 l144 -73 3 -152 3 -152 -151 75 -150 75 0 150 c0 83 2 150 4
150 2 0 68 -33 147 -73z"/>
<path d="M6242 3089 l3 -182 160 -83 c88 -46 164 -82 169 -81 5 2 9 82 10 180
l1 176 -166 86 c-92 47 -170 85 -173 85 -4 0 -5 -82 -4 -181z m307 -5 c8 -7 6
-294 -1 -294 -4 0 -69 30 -143 67 l-135 68 0 151 0 152 138 -70 c75 -39 139
-72 141 -74z"/>
<path d="M1318 3174 l-168 -85 -1 -52 c-1 -121 1 -300 3 -303 2 -1 80 37 173
84 l170 87 3 178 c1 97 -1 177 -5 177 -5 -1 -83 -39 -175 -86z"/>
<path d="M2105 3173 c-93 -47 -172 -89 -175 -93 -3 -5 -5 -77 -4 -162 1 -126
3 -152 15 -150 13 3 319 151 329 160 3 2 5 78 5 168 0 90 0 164 0 164 0 0 -76
-39 -170 -87z"/>
<path d="M4680 3095 l0 -165 180 -90 180 -90 0 167 0 168 -174 88 c-96 48
-177 87 -180 87 -3 0 -6 -74 -6 -165z m330 -161 c0 -74 -2 -134 -5 -134 -3 0
-70 33 -150 72 l-145 73 0 138 0 138 150 -77 150 -77 0 -133z"/>
<path d="M5070 2902 l0 -167 175 -88 c96 -48 177 -87 180 -87 3 0 5 73 5 163
l0 162 -180 93 -180 92 0 -168z m330 -162 c0 -72 -4 -130 -9 -130 -4 0 -72 32
-150 71 l-141 70 0 135 0 134 150 -75 150 -75 0 -130z"/>
<path d="M5850 2888 l0 -183 180 -92 180 -91 -2 185 -3 184 -175 90 c-96 49
-175 89 -177 89 -2 0 -3 -82 -3 -182z m185 58 l140 -72 3 -153 3 -152 -151 76
-150 76 0 150 c0 82 3 149 8 149 4 -1 70 -34 147 -74z"/>
<path d="M935 2979 c-88 -45 -164 -85 -168 -89 -8 -7 -10 -89 -7 -308 l0 -53
174 88 175 88 0 178 c1 97 -2 177 -6 177 -5 0 -80 -37 -168 -81z"/>
<path d="M1706 2970 l-169 -88 0 -143 c1 -79 2 -151 2 -160 1 -12 43 5 174 70
l174 86 0 163 c0 89 -2 162 -6 161 -3 0 -82 -40 -175 -89z"/>
<path d="M5460 2705 l0 -165 180 -90 180 -90 0 163 0 163 -180 92 -180 93 0
-166z m330 -165 c0 -106 -3 -128 -14 -124 -7 3 -74 35 -147 72 l-134 67 -3
133 -3 132 151 -75 150 -75 0 -130z"/>
<path d="M6240 2688 l0 -183 166 -84 c91 -45 168 -81 171 -78 3 3 6 84 6 180
l2 174 -164 84 c-91 46 -168 86 -173 87 -4 2 -8 -79 -8 -180z m173 66 c72 -37
134 -70 137 -74 4 -7 5 -267 1 -292 0 -4 -64 25 -141 65 l-140 72 0 148 c0 81
2 147 5 147 3 0 65 -30 138 -66z"/>
<path d="M537 2777 l-158 -82 1 -177 2 -176 31 13 c18 8 93 45 167 84 l135 70
3 175 c2 138 0 176 -10 175 -7 0 -84 -38 -171 -82z"/>
<path d="M1318 2773 l-167 -86 -3 -91 c-2 -50 -2 -121 0 -158 l3 -67 174 87
175 87 0 157 c0 87 -3 158 -7 158 -5 0 -83 -39 -175 -87z"/>
<path d="M5850 2508 l0 -163 171 -85 c95 -47 176 -86 180 -88 5 -2 9 68 9 156
l0 159 -180 92 -180 92 0 -163z m181 38 l144 -74 3 -126 c1 -69 1 -126 -2
-126 -2 0 -70 32 -150 71 l-146 72 0 128 c0 71 2 129 4 129 2 0 68 -33 147
-74z"/>
<path d="M928 2574 l-168 -84 -1 -53 c-2 -178 -1 -249 4 -253 3 -3 82 33 176
80 l171 86 0 155 c0 85 -3 155 -7 154 -5 0 -83 -38 -175 -85z"/>
<path d="M6240 2311 l0 -160 170 -84 170 -85 1 37 c0 20 1 91 2 157 l2 122
-172 86 -173 86 0 -159z m178 38 l137 -70 -1 -120 c0 -65 -3 -121 -5 -123 -2
-3 -66 27 -142 65 l-137 70 0 124 c0 69 2 125 5 125 3 0 68 -32 143 -71z"/>
<path d="M543 2377 l-162 -81 0 -153 c0 -84 2 -153 5 -153 2 0 78 37 169 82
l165 83 0 152 c0 84 -3 153 -7 153 -5 -1 -81 -38 -170 -83z"/>
</g>
</svg>
