<?xml version="1.0" standalone="no"?>
<!DOCTYPE svg PUBLIC "-//W3C//DTD SVG 20010904//EN"
 "http://www.w3.org/TR/2001/REC-SVG-20010904/DTD/svg10.dtd">
<svg version="1.0" xmlns="http://www.w3.org/2000/svg"
 width="1244.000000pt" height="1244.000000pt" viewBox="0 0 1244.000000 1244.000000"
 preserveAspectRatio="xMidYMid meet">
<metadata>
Created by potrace 1.14, written by Peter Selinger 2001-2017
</metadata>
<g transform="translate(0.000000,1244.000000) scale(0.100000,-0.100000)"
fill="#000000" stroke="none">
<path d="M6285 12115 l0 -305 250 -126 c137 -70 296 -151 351 -180 56 -30 104
-54 108 -54 3 0 6 138 5 308 l-1 307 -350 175 c-192 96 -353 176 -356 177 -4
2 -7 -134 -7 -302z m665 -82 c6 -6 7 -514 0 -510 -3 1 -81 41 -175 89 -93 48
-231 118 -305 156 l-135 69 -3 255 -2 256 307 -155 c170 -86 310 -158 313
-160z"/>
<path d="M5798 12232 l-348 -177 0 -298 0 -298 350 178 350 178 0 298 c0 163
-1 297 -2 296 -2 0 -159 -80 -350 -177z"/>
<path d="M7077 12012 c-5 -11 -3 -600 3 -605 12 -10 680 -347 688 -347 5 0 9
132 9 305 l0 305 -348 175 c-191 96 -350 172 -352 167z m646 -371 c8 -8 11
-500 3 -508 -2 -2 -129 60 -282 139 -154 78 -289 147 -301 153 -23 10 -23 11
-23 268 l0 258 298 -152 c163 -83 301 -154 305 -158z"/>
<path d="M5015 11837 l-340 -172 -1 -298 c0 -163 3 -297 7 -297 4 0 83 39 176
86 92 47 243 124 336 171 l167 84 1 37 c2 130 0 555 -3 557 -2 2 -156 -74
-343 -168z"/>
<path d="M6285 11364 l0 -357 230 -117 c127 -64 284 -145 350 -178 66 -34 123
-62 127 -62 5 0 8 161 8 358 l0 357 -353 178 c-193 98 -354 178 -357 178 -3
-1 -5 -161 -5 -357z m258 182 c111 -57 249 -128 307 -158 l105 -53 0 -308 c0
-169 -1 -307 -3 -307 -1 0 -132 66 -290 147 -158 81 -297 152 -309 157 l-23
11 0 308 c0 169 2 307 5 307 3 0 96 -47 208 -104z"/>
<path d="M5980 11629 c-85 -44 -239 -123 -342 -175 l-188 -95 0 -350 c0 -192
3 -349 8 -349 4 1 133 66 287 145 154 79 308 158 343 175 l62 31 0 349 c0 193
-3 350 -7 349 -5 0 -78 -36 -163 -80z"/>
<path d="M7851 11321 l0 -308 252 -128 c139 -71 294 -150 345 -177 51 -26 96
-48 100 -48 4 0 8 138 7 307 l0 306 -35 20 c-28 16 -415 211 -622 314 l-48 23
1 -309z m359 79 l300 -151 0 -259 c0 -243 -1 -259 -17 -252 -10 4 -61 29 -113
56 -52 27 -178 91 -280 143 -102 52 -189 99 -194 103 -5 5 -9 118 -8 252 0
269 0 258 7 258 3 0 140 -68 305 -150z"/>
<path d="M4235 11443 l-340 -171 0 -301 c0 -166 2 -301 5 -301 3 0 158 79 345
174 l339 173 1 287 c0 158 -2 292 -5 299 -3 8 -121 -46 -345 -160z"/>
<path d="M7077 11312 c-2 -4 -3 -164 -3 -355 l1 -349 40 -22 c41 -23 656 -336
660 -336 1 0 2 162 2 359 l0 360 -301 152 c-166 84 -314 160 -331 169 -42 23
-64 30 -68 22z m638 -366 c13 -10 15 -49 16 -311 0 -165 0 -304 -1 -308 0 -5
-37 12 -82 36 -46 24 -183 95 -305 157 l-223 114 0 308 0 309 289 -147 c160
-80 297 -151 306 -158z"/>
<path d="M5160 11210 c-107 -54 -260 -132 -340 -173 l-145 -74 -1 -352 -1
-351 336 171 c185 94 340 174 344 179 8 7 13 688 5 695 -2 2 -91 -40 -198 -95z"/>
<path d="M3470 11059 c-184 -93 -339 -175 -345 -182 -6 -9 -9 -125 -9 -308 1
-162 2 -295 3 -296 1 -2 465 233 611 309 l75 39 0 304 c0 168 0 305 0 304 0 0
-151 -77 -335 -170z"/>
<path d="M8630 10923 l0 -308 349 -178 c193 -97 351 -174 354 -170 2 5 3 145
3 312 l-1 304 -340 173 c-187 95 -346 174 -352 174 -10 0 -13 -68 -13 -307z
m360 85 l300 -153 0 -262 0 -263 -287 146 c-159 81 -297 152 -308 159 -19 12
-20 22 -18 266 0 140 2 255 2 257 2 6 31 -8 311 -150z"/>
<path d="M7853 10569 l2 -361 145 -75 c221 -113 439 -224 500 -253 l55 -27 0
359 0 359 -352 179 -352 180 2 -361z m360 126 l297 -150 0 -307 c0 -170 -3
-308 -6 -308 -6 0 -595 299 -603 306 -3 3 -5 576 -2 607 1 11 -24 23 314 -148z"/>
<path d="M6287 10912 c-2 -4 -3 -164 -3 -357 l1 -350 40 -21 c22 -11 183 -93
358 -182 l317 -163 -2 362 -3 361 -155 80 c-486 249 -548 280 -553 270z m663
-379 c9 -8 5 -613 -3 -613 -5 0 -45 20 -90 44 -45 24 -182 94 -304 155 l-223
112 0 310 0 310 308 -157 c169 -86 309 -159 312 -161z"/>
<path d="M4265 10754 c-165 -84 -316 -162 -335 -171 l-35 -18 0 -351 0 -352
335 171 c184 93 339 174 345 179 9 8 16 658 7 686 -2 6 -7 12 -11 11 -3 0
-141 -70 -306 -155z"/>
<path d="M5798 10732 l-348 -177 0 -347 c0 -222 4 -348 10 -348 5 0 51 22 102
48 51 27 203 104 336 172 134 68 246 128 248 134 2 6 3 165 2 353 l-3 342
-347 -177z"/>
<path d="M9410 10528 l0 -313 78 -37 c42 -21 200 -101 350 -177 l272 -140 1
42 c3 214 2 587 -2 591 -6 6 -688 346 -694 346 -3 0 -5 -141 -5 -312z m355 89
l300 -152 2 -265 2 -265 -232 116 c-128 65 -266 135 -307 157 l-75 40 0 261
c0 143 2 261 5 261 3 -1 140 -69 305 -153z"/>
<path d="M2678 10659 l-338 -170 0 -308 0 -308 178 91 c99 50 253 129 344 175
l164 84 1 304 c0 166 -3 303 -6 303 -3 -1 -158 -77 -343 -171z"/>
<path d="M8630 10171 l0 -360 128 -64 c70 -35 225 -114 345 -176 120 -61 221
-110 225 -107 4 2 7 163 7 357 l0 352 -145 75 c-152 78 -540 275 -552 280 -5
2 -8 -159 -8 -357z m368 123 l292 -149 0 -307 c0 -170 -1 -308 -3 -308 -2 0
-48 23 -103 51 -54 28 -191 97 -304 154 l-205 104 2 293 c1 359 0 333 16 321
6 -6 144 -77 305 -159z"/>
<path d="M3735 10486 c-33 -18 -181 -94 -329 -170 -149 -75 -275 -141 -280
-146 -14 -11 -15 -695 -1 -695 13 0 661 328 675 342 6 6 7 703 0 702 -3 0 -32
-15 -65 -33z"/>
<path d="M7079 10517 c-1 -1 -2 -161 -3 -355 -1 -244 2 -356 10 -363 12 -10
679 -349 686 -349 3 0 5 161 5 358 l-1 358 -348 176 c-191 98 -349 176 -349
175z m469 -287 c150 -76 182 -96 182 -114 2 -129 -1 -590 -3 -592 -2 -2 -37
14 -78 35 -40 22 -175 91 -299 154 l-225 115 -3 311 -2 310 122 -63 c68 -35
205 -105 306 -156z"/>
<path d="M5225 10441 c-71 -37 -225 -115 -341 -175 l-211 -107 0 -350 c1 -192
3 -349 5 -349 4 0 674 340 680 346 4 3 4 695 0 699 -2 1 -61 -28 -133 -64z"/>
<path d="M10190 10353 c-2 -346 1 -527 7 -534 10 -9 679 -349 687 -349 3 0 5
142 4 316 l-3 317 -344 173 c-189 96 -345 174 -347 174 -2 0 -4 -44 -4 -97z
m360 -132 l295 -149 1 -261 c0 -144 -2 -264 -6 -266 -3 -2 -141 65 -305 150
l-300 153 -3 266 c-2 211 0 264 10 260 7 -2 146 -72 308 -153z"/>
<path d="M1898 10266 l-338 -171 0 -307 c0 -170 2 -308 5 -308 8 0 658 331
673 343 9 7 12 82 12 313 0 167 -3 304 -7 303 -5 -1 -160 -78 -345 -173z"/>
<path d="M9410 9773 l0 -358 349 -177 c192 -98 350 -178 352 -178 3 0 3 666 0
707 -1 7 -36 30 -78 51 -43 21 -198 100 -344 175 -147 76 -270 137 -273 137
-3 0 -6 -161 -6 -357z m173 223 c67 -35 204 -105 305 -155 l182 -92 0 -310 0
-309 -297 151 c-164 83 -302 156 -308 161 -9 8 -16 618 -7 618 2 0 59 -29 125
-64z"/>
<path d="M2725 9969 c-159 -82 -310 -159 -335 -171 l-45 -23 -5 -160 c-3 -88
-4 -247 -2 -352 l3 -193 342 174 342 175 1 350 c0 193 -2 351 -5 350 -3 0
-136 -67 -296 -150z"/>
<path d="M6289 10112 c-1 -4 -2 -165 -3 -358 l-1 -352 225 -115 c124 -64 284
-145 355 -181 l130 -66 3 357 c2 332 1 358 -15 368 -62 36 -693 352 -694 347z
m386 -240 l280 -142 0 -309 0 -310 -310 159 -310 158 -3 311 -2 311 32 -18
c18 -10 159 -83 313 -160z"/>
<path d="M7851 9765 c0 -354 0 -355 22 -369 28 -17 647 -331 667 -338 14 -5
16 34 15 348 0 222 -4 356 -10 362 -16 15 -676 352 -689 352 -3 0 -6 -160 -5
-355z m657 -334 l2 -311 -152 79 c-84 43 -222 113 -305 155 -125 63 -153 81
-154 99 -1 28 -1 579 0 590 1 4 137 -62 304 -147 l302 -155 3 -310z"/>
<path d="M4245 9940 c-182 -93 -334 -171 -340 -173 -6 -2 -10 -132 -10 -355 0
-194 1 -352 1 -352 1 0 40 20 86 44 45 24 196 100 333 170 138 70 255 133 260
140 10 13 14 680 4 690 -2 2 -153 -71 -334 -164z"/>
<path d="M5865 9964 c-154 -79 -309 -159 -345 -177 l-65 -32 -3 -353 -2 -353
350 178 350 178 0 353 c0 193 -1 352 -2 351 -2 0 -129 -66 -283 -145z"/>
<path d="M10968 10052 c-3 -6 -2 -565 1 -614 1 -11 70 -51 219 -126 119 -61
275 -140 346 -176 70 -36 130 -66 132 -66 2 0 4 144 4 320 l0 319 -350 175
c-192 97 -351 172 -352 168z m367 -225 c154 -78 282 -143 285 -145 3 -2 5
-122 5 -268 0 -233 -1 -264 -15 -264 -9 0 -20 4 -26 9 -5 4 -136 73 -291 151
l-283 143 0 264 0 264 23 -7 c12 -4 148 -70 302 -147z"/>
<path d="M1131 9879 c-183 -92 -338 -172 -342 -176 -5 -5 -8 -147 -7 -316 l3
-307 85 43 c47 24 198 101 335 171 138 70 253 131 258 135 4 4 6 145 5 313
l-3 305 -334 -168z"/>
<path d="M10190 9676 c-3 -447 0 -651 12 -662 7 -6 165 -89 351 -183 l337
-171 -1 362 0 363 -117 57 c-64 32 -222 111 -349 176 l-233 119 0 -61z m355
-170 l300 -154 1 -306 c0 -168 -2 -306 -5 -306 -6 0 -519 258 -576 290 l-30
17 -3 306 c-1 169 1 307 5 307 5 0 143 -70 308 -154z"/>
<path d="M2195 9701 c-27 -15 -182 -94 -342 -176 l-293 -149 0 -348 c0 -191 3
-348 8 -348 4 0 88 42 188 93 99 50 251 128 337 172 l157 80 0 352 c0 194 -1
353 -2 352 -2 0 -25 -13 -53 -28z"/>
<path d="M8632 9364 l3 -357 125 -64 c194 -100 397 -202 490 -248 l85 -42 0
358 c0 197 -2 359 -5 362 -12 10 -682 347 -691 347 -6 0 -8 -135 -7 -356z
m238 192 c96 -49 229 -117 295 -150 l120 -61 3 -308 c1 -169 -1 -307 -4 -307
-12 0 -599 302 -604 310 -4 6 -5 570 -1 603 1 11 -18 19 191 -87z"/>
<path d="M3650 9639 c-74 -39 -224 -115 -332 -170 -109 -55 -198 -103 -199
-107 -5 -30 -3 -676 2 -684 5 -8 647 309 674 334 14 12 14 698 0 697 -5 0 -71
-32 -145 -70z"/>
<path d="M7075 9354 l0 -356 40 -20 39 -20 -75 -38 -74 -37 -3 36 -3 36 -349
178 c-192 97 -352 177 -357 177 -6 0 -10 -680 -4 -711 0 -4 15 -12 31 -19 17
-7 30 -15 30 -19 0 -6 -183 -101 -194 -101 -3 0 -6 9 -8 19 -3 18 -20 11 -154
-57 -538 -273 -544 -276 -544 -297 0 -14 -14 -26 -45 -41 -43 -20 -45 -20 -45
-2 0 15 -30 3 -172 -71 -95 -48 -251 -127 -346 -176 -94 -48 -170 -90 -168
-94 3 -4 2 -11 -2 -16 -10 -14 -96 -59 -88 -47 3 6 3 13 -2 16 -4 2 -160 -74
-347 -169 l-340 -173 -1 -344 c0 -188 1 -346 3 -350 2 -4 78 31 168 78 91 46
165 81 166 77 5 -45 3 -86 -6 -93 -5 -4 -82 -45 -170 -89 l-160 -82 0 -350 c0
-192 2 -349 4 -349 9 0 676 343 681 350 3 5 4 72 4 149 -1 78 0 141 2 141 2 0
23 -9 46 -21 l43 -21 -2 -99 c-1 -54 2 -99 7 -99 5 0 48 20 96 45 47 25 94 45
104 45 10 0 143 61 296 136 1135 555 1125 550 1109 524 -3 -5 -2 -10 2 -10 5
0 17 -6 27 -13 17 -13 13 -21 -59 -128 -111 -163 -105 -160 -105 -51 0 51 -2
92 -6 92 -3 0 -114 -56 -247 -124 -133 -68 -288 -147 -344 -175 l-103 -53 0
-329 c0 -181 3 -329 8 -329 4 0 46 20 95 44 48 24 87 42 87 40 0 -2 -30 -47
-68 -101 l-67 -98 -841 -420 c-743 -371 -1595 -794 -3948 -1963 l-639 -318
169 -83 c93 -46 374 -185 624 -309 250 -123 590 -291 755 -372 165 -81 498
-245 740 -365 242 -120 566 -279 720 -355 154 -76 478 -235 720 -355 242 -119
593 -293 780 -385 187 -92 529 -261 760 -375 675 -333 945 -465 953 -465 10 0
6094 3042 6090 3045 -2 2 -863 433 -1913 958 l-1911 955 -2 129 c-1 70 -3 248
-5 395 -1 147 -5 269 -7 271 -3 2 -75 39 -160 82 -85 43 -242 122 -347 177
l-193 99 0 -305 0 -306 -92 -46 -92 -46 -308 153 c-169 85 -307 158 -308 163
0 4 14 25 30 46 l31 39 329 -165 c182 -90 332 -164 335 -164 3 0 5 150 5 333
l0 333 -164 84 -163 84 16 28 c9 15 19 28 24 28 4 0 70 -31 146 -69 l138 -70
0 278 0 278 37 54 36 54 1 -120 c0 -66 0 -224 0 -350 l-1 -231 272 -138 c150
-77 309 -158 353 -181 l80 -42 0 361 0 361 -110 56 c-60 31 -184 93 -275 139
-91 46 -198 101 -238 123 l-72 39 21 29 21 30 324 -166 c178 -91 325 -165 326
-165 7 0 2 706 -4 716 -4 6 -68 41 -143 78 l-135 68 17 29 c10 16 21 29 25 29
4 0 57 -25 118 -55 60 -31 113 -55 117 -55 8 0 10 124 16 990 l4 525 -351 173
-351 173 -42 -20 c-30 -15 -43 -17 -44 -8 -1 6 -2 27 -3 45 -1 33 -2 34 -261
166 -143 73 -296 151 -340 174 -45 23 -85 42 -90 42 -7 0 -10 -131 -10 -356z
m359 131 l296 -150 0 -45 0 -45 -258 -127 c-142 -71 -263 -128 -270 -128 -6 0
-27 8 -47 17 l-35 17 0 309 c0 179 4 307 9 305 5 -1 142 -70 305 -153z m890
-465 l149 -73 -234 -115 c-129 -63 -387 -190 -574 -282 -187 -92 -506 -250
-710 -350 -203 -100 -487 -240 -630 -310 -143 -70 -440 -216 -660 -325 -220
-108 -482 -237 -583 -286 l-182 -89 -183 93 c-100 52 -229 118 -286 147 l-105
54 1769 882 1768 882 156 -77 c86 -43 223 -111 305 -151z m-1821 136 c89 -46
226 -116 305 -155 78 -39 142 -75 143 -79 9 -64 26 -51 -268 -198 l-273 -137
-40 18 -40 18 0 309 c0 169 2 308 5 308 3 0 79 -38 168 -84z m2005 -728 l-1
-473 -73 -106 c-60 -89 -136 -200 -184 -269 -66 -96 -220 -320 -285 -415 -45
-66 -111 -163 -146 -215 -36 -52 -85 -124 -110 -160 -24 -36 -47 -69 -52 -75
-9 -11 -107 -154 -337 -492 -85 -125 -263 -383 -395 -575 -132 -191 -269 -390
-305 -443 -36 -53 -94 -138 -130 -190 -36 -52 -148 -216 -250 -365 -102 -149
-210 -306 -240 -350 -212 -306 -391 -572 -388 -575 2 -2 224 106 493 240 1929
961 2396 1192 2398 1186 5 -9 1 -780 -4 -784 -2 -2 -78 -40 -169 -84 -91 -45
-354 -174 -585 -288 -586 -290 -1054 -520 -1440 -710 -181 -89 -501 -247 -710
-350 -641 -316 -679 -335 -682 -331 -2 2 -6 158 -9 347 -3 189 -7 400 -8 469
l-3 125 60 90 c34 50 83 122 110 160 26 39 69 102 95 140 26 39 49 72 52 75 3
3 44 61 89 130 46 69 107 159 136 200 102 148 190 276 229 335 22 33 44 65 48
70 5 6 41 57 80 115 39 58 107 159 153 225 45 66 111 163 147 215 35 52 98
145 140 205 184 268 225 329 324 475 99 146 204 300 369 540 39 58 136 200
215 315 80 116 171 248 203 295 241 351 466 684 463 687 -2 2 -151 -69 -332
-158 -181 -89 -387 -190 -459 -224 -71 -34 -229 -111 -350 -170 -121 -59 -296
-145 -390 -190 -376 -183 -532 -258 -790 -385 -356 -174 -554 -270 -560 -270
-3 0 -4 161 -3 359 l3 358 215 106 c118 59 400 197 625 308 802 394 956 470
1430 704 264 130 534 263 600 295 66 32 253 124 415 204 162 80 296 146 297
146 1 0 2 -213 1 -472z m-2 -905 c-9 -10 -166 79 -159 90 3 7 40 63 82 126
l76 114 3 -163 c1 -90 1 -165 -2 -167z m-880 125 c-9 -13 -36 -52 -60 -88 -99
-147 -277 -407 -443 -649 -201 -292 -260 -378 -399 -581 -54 -80 -135 -199
-181 -265 -45 -66 -143 -210 -218 -320 -238 -349 -423 -620 -432 -631 -4 -5
-12 -18 -18 -27 -10 -16 -30 -45 -230 -337 -59 -85 -123 -180 -143 -210 -21
-30 -39 -57 -42 -60 -3 -3 -47 -68 -99 -145 -52 -77 -109 -160 -126 -185 -17
-25 -87 -126 -155 -225 -210 -306 -227 -330 -236 -329 -5 1 -149 48 -320 104
l-312 102 52 74 c28 41 87 126 131 189 44 63 121 173 170 246 50 72 106 152
125 179 19 27 60 85 90 129 52 77 452 655 520 751 44 63 198 284 310 447 52
76 120 174 151 218 30 44 208 301 394 570 187 270 343 492 347 493 5 2 6 8 2
13 -3 5 93 57 213 115 603 294 793 386 843 413 70 37 89 40 66 9z m882 -626
l2 -311 -289 147 c-274 140 -288 148 -277 168 6 12 76 115 155 230 l143 209
132 -66 131 -67 3 -310z m-3818 211 c91 -47 167 -89 170 -94 7 -10 5 -707 -1
-714 -3 -2 -79 34 -170 81 -90 46 -217 110 -281 142 l-117 57 0 366 -1 367
118 -60 c64 -33 191 -98 282 -145z m1701 -185 c-19 -32 -51 -44 -58 -23 -2 8
59 53 75 55 2 0 -5 -15 -17 -32z m1545 -227 c5 -5 136 -73 292 -151 l282 -143
0 -309 0 -309 -297 151 c-164 83 -302 155 -307 160 -7 7 -13 520 -7 598 1 14
23 16 37 3z m-205 -306 c0 -109 -2 -200 -5 -202 -9 -10 -205 100 -199 111 10
17 47 70 53 76 3 3 37 53 75 111 39 58 71 105 73 104 2 -2 3 -91 3 -200z
m-154 -316 c76 -38 141 -74 146 -78 7 -7 12 -560 5 -566 -2 -1 -135 63 -296
143 -204 103 -291 151 -287 160 10 27 276 412 285 412 5 0 71 -32 147 -71z
m614 -313 c151 -77 284 -145 296 -150 23 -11 23 -12 23 -248 0 -131 -1 -238
-3 -238 -12 0 -601 271 -606 278 -5 8 -7 485 -2 500 1 5 -2 7 292 -142z m-877
-352 c160 -81 293 -148 295 -150 3 -3 -1194 -604 -1205 -604 -3 0 34 57 82
128 48 70 106 154 128 187 23 33 43 62 46 65 3 3 32 46 64 95 33 50 62 92 65
95 3 3 28 39 56 80 27 41 52 77 55 80 3 3 30 42 60 87 30 46 57 83 59 83 2 0
135 -66 295 -146z m-1905 94 c-17 -24 -60 -86 -96 -138 -37 -52 -107 -153
-156 -225 -50 -71 -109 -157 -132 -190 -22 -33 -68 -98 -100 -145 -33 -47
-108 -155 -167 -240 -59 -85 -137 -198 -173 -250 -96 -137 -327 -471 -391
-566 l-55 -81 -2 -472 c-2 -259 0 -475 3 -480 3 -4 171 -78 373 -164 l368
-157 307 151 c541 267 1017 502 1407 694 209 103 529 261 710 350 940 464
1250 617 1253 620 2 1 4 131 4 288 l1 285 46 -22 c62 -30 3675 -1837 3679
-1841 3 -3 -5981 -2995 -5990 -2995 -4 0 -169 79 -365 176 -197 97 -511 252
-698 344 -187 92 -524 259 -750 370 -225 111 -567 280 -760 375 -192 95 -510
251 -705 348 -195 96 -566 279 -825 406 -259 128 -663 328 -900 444 -236 117
-584 289 -773 382 l-343 170 523 259 c288 143 1038 516 1668 829 630 313 1415
703 1745 867 330 164 759 377 954 474 194 97 357 176 362 176 5 0 -4 -19 -22
-42z m2596 -216 c61 -27 139 -62 175 -79 36 -16 113 -51 173 -78 59 -26 107
-49 107 -51 0 -8 -2673 -1334 -2679 -1329 -3 3 -1 9 4 13 6 4 35 43 64 87 60
87 115 168 236 345 44 63 116 169 161 234 l82 120 784 393 c430 216 783 393
783 393 1 0 50 -22 110 -48z m-3479 -1773 l310 -102 1 -81 c0 -44 4 -255 8
-468 3 -214 3 -388 -2 -387 -4 0 -152 62 -328 137 l-320 138 0 432 c0 281 3
432 10 432 6 1 150 -45 321 -101z"/>
<path d="M5020 9532 c-179 -92 -331 -170 -337 -175 -13 -8 -17 -697 -4 -697 7
0 65 29 494 247 l187 96 0 61 c1 73 1 593 0 619 0 9 -3 17 -7 17 -5 0 -154
-76 -333 -168z"/>
<path d="M11745 9349 c0 -175 3 -320 5 -322 9 -8 658 -337 664 -337 4 0 5 145
4 321 l-3 321 -315 159 c-173 87 -324 162 -335 167 -20 9 -20 7 -20 -309z m81
232 c5 -5 128 -68 274 -141 146 -73 267 -135 270 -137 8 -7 6 -543 -2 -541 -4
2 -135 68 -292 148 l-286 145 0 268 c0 212 3 267 13 267 7 0 17 -4 23 -9z"/>
<path d="M358 9491 l-328 -166 0 -312 c0 -172 2 -313 4 -313 3 0 60 29 128 63
68 35 214 110 326 167 l202 102 0 314 c0 173 -1 313 -2 313 -2 -1 -150 -76
-330 -168z"/>
<path d="M10965 8985 c1 -212 5 -358 10 -364 14 -13 677 -351 689 -351 3 0 6
161 6 358 l0 358 -62 30 c-35 16 -192 96 -350 177 -158 81 -288 147 -290 147
-2 0 -3 -160 -3 -355z m266 171 c112 -58 247 -126 299 -153 l95 -48 0 -307 c0
-170 -2 -308 -5 -308 -3 1 -140 70 -305 154 l-300 154 -3 306 c-1 178 1 306 7
306 5 0 100 -47 212 -104z"/>
<path d="M1330 9259 c-74 -39 -228 -117 -342 -175 l-208 -105 0 -349 c0 -193
2 -350 5 -350 3 0 148 73 323 162 174 89 327 167 339 172 l23 11 0 353 c0 193
-1 352 -2 351 -2 0 -64 -32 -138 -70z"/>
<path d="M9412 8969 l3 -360 344 -175 c189 -96 346 -173 349 -169 7 7 9 680 2
700 -3 7 -95 59 -205 115 -110 57 -258 132 -330 169 -71 36 -138 69 -148 73
-16 7 -17 -12 -15 -353z m658 -331 c0 -170 -3 -308 -6 -308 -3 0 -42 20 -87
44 -45 24 -179 92 -297 151 -118 59 -217 110 -220 112 -3 3 -5 143 -5 313 l0
309 307 -157 308 -157 0 -307z"/>
<path d="M2690 9149 c-184 -94 -338 -174 -342 -178 -8 -7 -12 -690 -4 -698 2
-2 59 25 127 60 68 36 218 113 334 171 115 59 212 109 215 112 4 4 10 705 6
704 -1 0 -152 -77 -336 -171z"/>
<path d="M4460 9248 c-63 -33 -214 -109 -335 -171 -121 -61 -222 -113 -225
-115 -6 -4 -7 -702 -1 -702 5 0 675 341 681 347 6 6 6 694 0 697 -3 2 -57 -24
-120 -56z"/>
<path d="M5945 9202 c-104 -54 -259 -133 -342 -176 l-153 -78 0 -349 c0 -192
2 -349 5 -349 4 0 88 42 188 94 100 51 255 130 345 175 l162 82 0 350 c0 192
-3 349 -7 349 -5 -1 -93 -45 -198 -98z"/>
<path d="M11749 8938 c-1 -1 -2 -162 -3 -356 -1 -228 2 -356 9 -361 5 -5 157
-83 338 -175 l327 -167 -2 362 -3 361 -145 75 c-162 83 -501 256 -512 261 -5
2 -9 2 -9 0z m626 -668 c0 -166 -2 -303 -5 -305 -6 -4 -39 12 -377 184 l-203
103 0 310 0 309 293 -149 292 -150 0 -302z"/>
<path d="M358 8762 l-328 -167 0 -347 c0 -192 3 -348 7 -348 3 0 94 45 202 99
338 171 435 221 443 229 5 5 7 164 6 354 l-3 347 -327 -167z"/>
<path d="M10190 8873 c-2 -206 0 -656 2 -658 8 -7 624 -322 670 -343 l28 -12
0 359 0 359 -192 98 c-106 53 -261 132 -344 175 -84 44 -155 79 -158 79 -3 0
-6 -26 -6 -57z m85 -33 c6 -4 136 -71 291 -149 l280 -142 0 -304 c1 -191 -3
-305 -9 -305 -11 0 -576 287 -594 302 -10 8 -13 83 -13 314 0 285 1 303 18
297 9 -3 22 -9 27 -13z"/>
<path d="M1990 8790 c-140 -71 -294 -149 -342 -173 l-88 -42 0 -353 0 -353
338 171 c185 95 340 175 345 179 4 4 6 164 5 355 l-3 347 -255 -131z"/>
<path d="M8630 8566 c0 -271 3 -356 13 -363 12 -10 682 -353 688 -353 10 0 3
710 -6 719 -11 10 -679 351 -689 351 -3 0 -6 -159 -6 -354z m658 -335 l2 -312
-297 152 c-164 84 -302 155 -308 160 -6 4 -9 117 -8 306 0 164 2 301 2 305 1
4 137 -62 304 -147 l302 -153 3 -311z"/>
<path d="M3455 8736 l-339 -174 -1 -346 c0 -252 3 -346 11 -346 7 0 90 40 185
89 96 49 246 125 334 170 l160 82 0 349 c0 193 -2 350 -5 350 -3 -1 -158 -79
-345 -174z"/>
<path d="M5280 8863 c-36 -18 -186 -96 -335 -172 l-270 -137 -2 -352 c-2 -389
-8 -360 62 -322 17 9 165 85 330 169 l300 153 -2 316 c-1 174 -2 332 -3 350 0
17 -3 31 -7 31 -5 -1 -37 -17 -73 -36z"/>
<path d="M10968 8521 c-5 -23 -2 -700 3 -704 2 -2 160 -83 352 -181 l347 -177
-2 362 -3 361 -160 82 c-502 258 -533 273 -537 257z m350 -213 c164 -83 299
-153 302 -155 8 -7 6 -613 -2 -613 -5 0 -106 50 -225 112 -120 62 -255 130
-300 152 l-83 41 0 308 c0 169 3 307 6 307 3 0 139 -68 302 -152z"/>
<path d="M9412 8170 l3 -362 100 -52 c55 -29 211 -109 348 -178 l247 -125 1
46 c2 239 2 672 -2 675 -2 2 -101 52 -219 111 -118 59 -275 139 -348 177
l-132 70 2 -362z m291 159 c133 -67 268 -136 302 -154 l60 -33 2 -306 c1 -168
-1 -306 -4 -306 -7 0 -596 299 -603 306 -5 6 -7 614 -2 614 2 0 112 -55 245
-121z"/>
<path d="M1130 8352 c-179 -92 -331 -171 -338 -175 -16 -11 -18 -697 -2 -697
6 0 79 35 163 79 83 43 234 120 335 171 l182 92 0 349 c0 192 -3 349 -7 349
-5 -1 -154 -76 -333 -168z"/>
<path d="M2940 8473 c-47 -24 -201 -104 -342 -176 l-258 -131 0 -73 c0 -40 0
-183 0 -318 0 -135 0 -260 0 -278 l0 -34 169 86 c92 47 244 124 337 171 93 47
171 86 174 88 3 2 5 163 6 358 0 195 0 354 0 353 -1 0 -39 -21 -86 -46z"/>
<path d="M4567 8503 c-3 -4 -155 -84 -339 -177 l-333 -170 0 -342 c0 -188 3
-345 7 -349 3 -4 89 36 190 88 100 52 252 129 336 171 103 52 152 82 153 94 4
77 1 684 -4 688 -3 3 -7 2 -10 -3z"/>
<path d="M11749 8132 c-1 -4 -2 -164 -3 -355 -1 -226 2 -351 9 -356 11 -9 291
-154 520 -270 l140 -71 3 357 c1 196 -1 360 -5 363 -19 17 -663 339 -664 332z
m426 -260 l200 -102 0 -303 c0 -191 -4 -302 -10 -303 -10 -2 -80 33 -385 189
l-185 95 -3 310 -2 310 92 -47 c51 -26 183 -93 293 -149z"/>
<path d="M435 7999 c-137 -71 -284 -146 -325 -166 l-75 -38 -3 -353 -2 -353
330 168 330 168 0 353 c0 193 -1 352 -2 351 -2 -1 -115 -59 -253 -130z"/>
<path d="M10190 8073 c-3 -333 1 -658 7 -664 10 -9 679 -349 687 -349 3 0 6
161 6 358 l0 357 -350 178 -350 178 0 -58z m317 -154 c142 -72 276 -142 299
-155 l41 -23 -2 -303 c-1 -167 -2 -304 -3 -306 -1 -2 -84 39 -184 91 -101 52
-238 122 -305 156 l-123 62 0 305 c0 183 4 304 9 304 6 0 126 -59 268 -131z"/>
<path d="M1905 7945 l-340 -173 -3 -351 c-1 -193 0 -351 2 -351 2 0 60 29 128
63 67 35 219 112 336 172 118 59 216 113 218 119 2 6 3 165 2 353 l-3 341
-340 -173z"/>
<path d="M8630 7761 l0 -359 243 -122 c133 -67 288 -147 343 -176 56 -30 106
-54 110 -54 5 0 9 156 9 356 l0 355 -85 45 c-110 59 -555 285 -592 302 l-28
12 0 -359z m150 235 c47 -25 181 -93 298 -153 l212 -108 0 -307 0 -308 -27 11
c-15 6 -32 14 -38 18 -5 5 -128 68 -272 141 -145 72 -266 137 -270 143 -11 19
-10 607 2 607 6 0 48 -20 95 -44z"/>
<path d="M3785 8101 c-6 -5 -158 -84 -340 -176 l-330 -167 1 -346 c0 -294 3
-347 15 -344 13 3 145 69 534 267 l140 72 0 351 c0 194 -2 352 -5 352 -3 0
-10 -4 -15 -9z"/>
<path d="M10969 7728 c-4 -10 -3 -702 1 -707 8 -12 682 -361 697 -361 1 0 3
161 3 358 l0 358 -252 129 c-139 70 -294 150 -345 176 -87 46 -102 53 -104 47z
m221 -157 c263 -133 414 -213 425 -223 6 -5 10 -125 10 -313 l0 -304 -307 156
-308 156 0 309 c0 171 3 308 8 306 4 -2 81 -41 172 -87z"/>
<path d="M1380 7676 c-47 -24 -197 -100 -335 -170 -137 -70 -253 -130 -258
-135 -4 -4 -6 -163 -5 -354 l3 -347 45 24 c40 21 505 258 603 308 l37 18 0
350 c0 193 -1 350 -2 350 -2 0 -41 -20 -88 -44z"/>
<path d="M9410 7363 l0 -358 153 -78 c83 -42 240 -122 346 -177 107 -55 197
-98 199 -96 8 9 5 707 -3 715 -12 10 -681 351 -689 351 -3 0 -6 -161 -6 -357z
m657 -333 l2 -311 -297 152 c-163 83 -302 157 -307 164 -8 10 -14 565 -6 607
0 4 137 -62 304 -147 l302 -154 2 -311z"/>
<path d="M2850 7624 c-91 -47 -240 -124 -332 -171 -93 -46 -170 -89 -173 -94
-4 -5 -6 -75 -6 -156 0 -82 1 -237 1 -346 l0 -197 218 111 c119 61 271 138
337 172 66 33 122 63 125 65 7 5 8 702 1 701 -3 0 -80 -38 -171 -85z"/>
<path d="M10190 7271 c-3 -283 0 -654 5 -661 3 -5 70 -41 148 -81 78 -39 233
-118 345 -176 l202 -103 -1 362 0 363 -107 53 c-59 29 -216 108 -349 176
l-243 123 0 -56z m349 -172 c163 -83 298 -154 301 -156 7 -7 8 -613 1 -613 -5
0 -356 177 -546 275 l-60 31 -3 307 c-1 169 1 307 4 307 4 0 140 -68 303 -151z"/>
<path d="M11745 6976 c0 -195 2 -356 5 -359 3 -2 145 -75 315 -162 171 -87
314 -162 319 -166 34 -31 36 -15 36 349 l0 358 -42 20 c-24 11 -172 86 -329
167 -158 81 -290 147 -295 147 -5 0 -9 -154 -9 -354z m326 145 c149 -76 279
-145 288 -153 15 -12 16 -46 15 -308 -1 -162 -2 -299 -3 -303 0 -4 -117 52
-258 125 -142 73 -273 139 -290 147 l-33 15 0 308 c0 169 2 308 5 308 3 0 127
-62 276 -139z"/>
<path d="M355 7155 l-320 -164 -3 -350 c-1 -193 0 -351 3 -351 4 0 79 38 168
84 89 46 235 120 325 166 l162 82 0 349 c0 192 -3 349 -7 348 -5 0 -152 -74
-328 -164z"/>
<path d="M2210 7297 c-14 -7 -166 -85 -337 -172 l-313 -160 0 -352 0 -352 93
48 c50 26 206 106 345 176 l252 128 0 349 c0 191 -3 348 -7 348 -5 0 -19 -6
-33 -13z"/>
<path d="M8632 6953 l3 -357 350 -177 350 -178 0 359 c0 197 -2 360 -5 363 -3
2 -61 32 -130 67 -69 34 -220 112 -337 171 -116 60 -216 109 -222 109 -8 0
-10 -105 -9 -357z m228 198 c91 -46 224 -114 295 -150 l130 -66 3 -308 c1
-169 -1 -307 -4 -307 -12 0 -599 302 -604 310 -4 6 -5 595 -1 608 1 5 -3 7
181 -87z"/>
<path d="M3675 7241 c-60 -31 -210 -108 -332 -170 -123 -63 -223 -116 -224
-120 -5 -30 -2 -684 3 -687 8 -5 654 320 673 338 14 12 14 698 0 697 -5 -1
-59 -27 -120 -58z"/>
<path d="M10965 6571 l0 -358 346 -177 c190 -97 349 -176 353 -176 3 0 6 161
6 358 l0 358 -92 45 c-51 25 -208 105 -350 177 -141 73 -258 132 -260 132 -1
0 -3 -161 -3 -359z m181 218 c65 -34 198 -101 296 -150 97 -49 178 -95 180
-102 9 -27 3 -602 -7 -602 -6 0 -55 24 -110 52 -55 28 -188 97 -295 152 l-195
100 -3 305 c-1 168 2 306 6 306 5 0 62 -27 128 -61z"/>
<path d="M1125 6745 l-340 -174 -3 -351 c-1 -217 1 -350 7 -348 5 1 161 80
345 173 l336 170 0 353 c0 193 -1 352 -2 351 -2 0 -156 -78 -343 -174z"/>
<path d="M9410 6560 l0 -359 113 -57 c61 -31 217 -110 345 -176 128 -65 236
-117 240 -114 7 4 9 703 1 710 -4 4 -175 92 -489 252 -74 38 -152 77 -172 86
l-38 17 0 -359z m660 -332 c0 -170 -2 -308 -3 -308 -5 0 -601 302 -607 307 -2
2 -5 143 -5 313 l0 309 307 -157 308 -157 0 -307z"/>
<path d="M2970 6881 c-30 -15 -181 -92 -335 -170 -154 -78 -283 -146 -288
-150 -7 -7 -11 -690 -4 -697 3 -4 294 142 562 281 l120 62 1 352 c0 193 0 351
0 351 -1 0 -26 -13 -56 -29z"/>
<path d="M11749 6528 c-1 -1 -2 -160 -3 -352 -1 -223 2 -353 9 -361 5 -7 157
-87 338 -178 l327 -166 -2 361 -3 361 -85 44 c-100 52 -562 286 -572 291 -5 2
-9 2 -9 0z m621 -365 c8 -7 6 -613 -2 -613 -4 0 -22 8 -41 19 -18 10 -146 76
-285 146 l-252 127 0 310 0 309 288 -146 c158 -81 289 -149 292 -152z"/>
<path d="M358 6352 l-328 -167 0 -352 0 -352 82 43 c46 24 193 98 326 166 134
68 246 128 248 134 2 6 3 165 2 353 l-3 342 -327 -167z"/>
<path d="M10190 6470 c-1 -27 -1 -160 -1 -295 0 -135 0 -274 1 -309 l0 -63
313 -158 c171 -87 327 -167 345 -177 18 -10 35 -18 37 -18 3 0 5 162 5 359 l0
360 -152 77 c-84 42 -240 121 -345 175 -106 55 -195 99 -198 99 -3 0 -5 -22
-5 -50z m225 -112 c94 -47 229 -116 301 -153 l130 -67 0 -304 c0 -178 -4 -304
-9 -304 -5 0 -144 69 -308 152 l-299 153 0 308 c0 170 3 307 8 305 4 -2 84
-42 177 -90z"/>
<path d="M1985 6379 c-137 -71 -289 -148 -337 -172 l-88 -42 0 -353 0 -353
343 175 342 174 3 351 c1 193 -1 351 -5 350 -5 0 -120 -59 -258 -130z"/>
<path d="M8630 6152 l0 -357 203 -103 c111 -56 263 -134 337 -172 74 -39 142
-71 150 -73 13 -2 15 46 15 354 l0 356 -346 177 c-191 97 -350 176 -353 176
-3 0 -6 -161 -6 -358z m263 179 c117 -60 254 -130 305 -155 l92 -47 0 -309 0
-309 -297 151 c-164 83 -302 155 -307 159 -9 8 -16 619 -8 619 2 0 99 -49 215
-109z"/>
<path d="M3465 6330 c-181 -93 -334 -171 -340 -173 -9 -3 -16 -681 -8 -699 2
-4 117 50 256 121 139 71 292 150 342 175 l90 45 0 351 c0 192 -2 350 -5 350
-3 -1 -153 -77 -335 -170z"/>
<path d="M5320 6474 c-14 -8 -164 -85 -335 -172 l-310 -158 0 -327 c-1 -180 0
-327 1 -327 3 0 675 331 682 336 3 2 4 365 2 602 0 66 -1 68 -40 46z"/>
<path d="M1455 6111 c-6 -4 -160 -84 -342 -177 l-333 -169 0 -347 c0 -235 3
-348 10 -348 6 0 43 17 83 39 40 21 190 98 335 171 l262 132 0 354 c0 195 -1
354 -3 354 -2 0 -7 -4 -12 -9z"/>
<path d="M9412 5759 l3 -360 80 -43 c44 -23 200 -104 348 -178 l267 -136 1 56
c3 284 -1 656 -8 663 -8 8 -76 43 -486 252 l-207 106 2 -360z m654 -332 c2
-308 0 -327 -32 -298 -5 5 -136 73 -291 151 -156 78 -284 145 -284 148 -4 19
-5 598 -1 605 2 4 139 -61 305 -146 l302 -154 1 -306z"/>
<path d="M10968 6108 c-2 -7 -3 -167 -3 -356 l1 -343 352 -180 352 -180 -2
362 -3 361 -155 79 c-268 138 -528 269 -533 269 -3 0 -7 -6 -9 -12z m357 -213
l300 -154 0 -305 c0 -168 -3 -306 -6 -306 -4 0 -105 50 -225 112 -121 62 -256
130 -301 152 l-83 40 0 308 c0 169 3 308 8 308 4 -1 142 -70 307 -155z"/>
<path d="M2965 6076 c-22 -12 -172 -89 -332 -171 l-293 -148 0 -68 c0 -38 0
-179 0 -314 0 -135 0 -263 0 -284 l0 -39 53 27 c28 15 178 92 332 171 154 78
285 146 291 151 14 12 13 691 -1 695 -5 2 -28 -7 -50 -20z"/>
<path d="M4564 6091 c-5 -5 -153 -82 -329 -171 -176 -90 -325 -166 -330 -171
-7 -5 -10 -120 -9 -321 1 -172 2 -316 3 -321 2 -11 678 330 683 345 6 18 3
637 -3 643 -3 2 -10 1 -15 -4z"/>
<path d="M11749 5728 c-1 -2 -2 -164 -3 -360 l-1 -357 260 -132 c143 -73 293
-150 334 -171 41 -21 76 -38 78 -38 2 0 3 162 3 359 l0 359 -212 107 c-117 59
-268 137 -335 172 -68 35 -124 63 -124 61z m446 -277 l180 -90 0 -310 0 -309
-290 147 -290 148 -3 311 -2 311 112 -59 c62 -32 194 -99 293 -149z"/>
<path d="M445 5594 c-132 -68 -278 -143 -325 -166 l-85 -43 -3 -353 -2 -353
330 168 330 168 0 353 c0 193 -1 352 -2 351 -2 -1 -111 -57 -243 -125z"/>
<path d="M10190 5663 c-3 -323 1 -658 7 -664 10 -9 678 -349 687 -349 3 0 6
161 6 358 l0 357 -207 105 c-113 58 -270 138 -347 177 -78 40 -142 73 -143 73
-2 0 -3 -26 -3 -57z m347 -169 c158 -81 293 -151 298 -156 9 -8 17 -618 8
-618 -2 0 -139 70 -306 155 l-302 154 -3 306 c-1 187 1 305 7 305 5 0 139 -66
298 -146z"/>
<path d="M1905 5534 l-340 -173 -3 -350 c-1 -193 0 -351 3 -351 3 0 83 40 178
89 94 48 246 125 335 171 90 46 166 88 168 94 2 6 3 165 2 352 l-3 341 -340
-173z"/>
<path d="M8630 5380 l0 -330 350 -175 c192 -96 351 -171 353 -167 2 4 3 150 3
325 l-1 318 -115 60 c-155 81 -551 282 -572 291 -17 7 -18 -12 -18 -322z m660
-332 l0 -277 -302 151 c-167 82 -305 152 -307 154 -3 3 -5 130 -5 284 l-1 279
307 -157 308 -157 0 -277z"/>
<path d="M3699 5646 c-57 -29 -207 -106 -334 -170 -126 -65 -234 -121 -240
-127 -13 -13 -13 -620 0 -625 6 -3 161 71 345 163 l335 168 0 323 c0 177 0
322 -1 322 -1 0 -48 -24 -105 -54z"/>
<path d="M10968 5308 c-2 -7 -3 -168 -3 -358 l1 -344 119 -62 c263 -135 576
-294 580 -294 3 0 5 161 5 358 l0 357 -217 112 c-276 141 -477 243 -479 243
-1 0 -4 -6 -6 -12z m192 -132 c355 -182 446 -229 455 -238 6 -5 10 -123 10
-312 l0 -303 -25 11 c-14 6 -83 41 -155 77 -71 37 -199 102 -282 144 l-153 78
0 308 0 308 38 -17 c20 -10 71 -35 112 -56z"/>
<path d="M1410 5284 c-25 -13 -175 -90 -335 -172 l-290 -147 -3 -353 -2 -353
342 174 343 174 3 351 c1 194 -1 352 -5 351 -5 0 -28 -11 -53 -25z"/>
<path d="M9410 4985 l0 -325 350 -174 c192 -96 351 -171 353 -168 8 19 0 633
-9 641 -11 10 -680 351 -688 351 -3 0 -6 -146 -6 -325z m658 -324 c1 -149 0
-271 -4 -271 -7 0 -596 290 -604 297 -5 5 -8 534 -3 545 2 4 139 -62 306 -147
l302 -154 3 -270z"/>
<path d="M2715 5144 c-165 -85 -317 -162 -337 -172 l-38 -17 0 -312 c0 -172 3
-313 8 -313 4 1 158 76 342 168 l335 167 1 318 c0 174 -2 317 -5 316 -3 0
-141 -70 -306 -155z"/>
<path d="M10190 4866 c-2 -219 0 -589 2 -592 6 -6 686 -344 692 -344 4 0 5
142 4 316 l-3 316 -145 75 c-80 41 -236 121 -347 177 l-203 103 0 -51z m355
-180 l300 -154 1 -266 c0 -146 -1 -266 -3 -266 -1 0 -140 69 -308 152 l-305
153 0 267 c0 148 3 268 8 268 4 0 142 -70 307 -154z"/>
<path d="M11747 4913 c-2 -5 -3 -165 -3 -356 l1 -348 85 -45 c130 -70 576
-294 584 -294 3 0 5 161 4 358 l-3 357 -105 53 c-58 30 -206 105 -329 168
-123 63 -225 114 -227 114 -1 0 -5 -3 -7 -7z m320 -199 c147 -75 277 -142 288
-149 20 -12 20 -22 19 -316 -1 -167 -2 -305 -3 -307 0 -1 -121 60 -268 135
-148 75 -278 142 -290 148 l-23 10 0 308 c0 169 2 307 5 307 2 0 125 -61 272
-136z"/>
<path d="M355 4745 l-320 -164 -3 -350 c-1 -193 0 -351 3 -351 3 0 88 42 188
94 100 51 246 126 325 166 l142 72 0 349 c0 192 -3 349 -7 348 -5 0 -152 -74
-328 -164z"/>
<path d="M1898 4727 l-338 -172 0 -307 c0 -170 3 -308 8 -307 4 0 158 76 342
168 l335 168 3 312 c1 171 -1 311 -5 311 -5 0 -160 -78 -345 -173z"/>
<path d="M10969 4512 c-4 -31 -3 -616 1 -622 5 -8 685 -350 695 -350 3 0 5
141 5 313 l0 312 -350 177 c-193 98 -350 174 -351 170z m541 -318 l115 -59 -1
-250 c-1 -137 -2 -255 -3 -262 0 -7 -131 53 -306 140 l-305 152 0 267 0 267
193 -99 c105 -54 244 -124 307 -156z"/>
<path d="M1300 4424 c-91 -47 -245 -126 -342 -176 l-178 -90 0 -304 0 -304 27
13 c16 6 171 83 345 169 l318 157 0 311 c0 170 -1 310 -2 309 -2 0 -77 -39
-168 -85z"/>
<path d="M11745 3811 c0 -170 2 -312 5 -314 3 -3 155 -80 338 -171 l332 -166
-2 311 -3 311 -155 80 c-258 132 -507 258 -511 258 -2 0 -4 -139 -4 -309z
m625 -58 c6 -6 7 -513 0 -513 -3 0 -134 64 -292 142 l-288 143 0 263 0 263
288 -146 c158 -81 289 -149 292 -152z"/>
<path d="M510 4020 c-96 -49 -244 -124 -327 -167 l-153 -77 0 -298 c0 -164 2
-298 5 -298 3 0 151 72 330 161 l325 160 0 305 c0 167 -1 304 -2 304 -2 0 -82
-41 -178 -90z"/>
</g>
</svg>
