<svg width="779" height="226" viewBox="0 0 779 226" fill="none" xmlns="http://www.w3.org/2000/svg">
<g clip-path="url(#clip0_887_3765)">
<path d="M281.131 153.241H266V76.4658H284.627L307.089 135.141L329.451 76.4658H348.078V153.231H332.946V102.451L313.441 153.231H300.617L281.111 102.56V153.231L281.131 153.241Z" fill="white"/>
<path d="M358.475 85.6208C356.687 83.8319 355.788 81.6232 355.788 78.9947C355.788 76.3663 356.677 74.2975 358.475 72.5785C360.263 70.8695 362.43 70 364.997 70C367.563 70 369.701 70.8695 371.459 72.5785C373.206 74.2975 374.085 76.4362 374.085 78.9947C374.085 81.5532 373.206 83.8419 371.459 85.6208C369.701 87.4098 367.543 88.3092 364.997 88.3092C362.45 88.3092 360.263 87.4198 358.475 85.6208ZM372.437 153.231H357.426V95.1052H372.437V153.231Z" fill="white"/>
<path d="M381.696 153.241V95.1148H393.751L395.059 103.45C396.737 100.382 399.294 97.9031 402.73 96.0542C406.165 94.1853 410 93.2559 414.235 93.2559C420.447 93.2559 425.421 95.2147 429.147 99.1324C432.862 103.04 434.73 108.287 434.73 114.863V153.251H419.718V115.523C419.718 112.664 418.819 110.396 417.032 108.727C415.244 107.038 412.737 106.198 409.521 106.198C405.796 106.198 402.73 107.318 400.313 109.546C397.896 111.775 396.687 114.643 396.687 118.161V153.251H381.676L381.696 153.241Z" fill="white"/>
<path d="M454.695 151.042C450.57 148.413 447.324 144.736 444.987 140.018C442.65 135.301 441.481 129.914 441.481 123.848C441.481 117.782 442.61 112.635 444.877 107.997C447.144 103.36 450.3 99.7321 454.355 97.1336C458.41 94.5452 462.995 93.2459 468.108 93.2459C471.983 93.2459 475.499 93.9755 478.685 95.4446C481.861 96.9038 484.438 98.9126 486.405 101.481V70.999H501.427V153.251H489.372L488.053 143.486C486.515 147.074 484.058 149.883 480.663 151.931C477.267 153.98 473.272 155 468.658 155C463.474 155 458.81 153.69 454.695 151.052V151.042ZM482.31 137.44C485.057 133.932 486.425 129.365 486.425 123.728C486.425 118.391 485.057 114.044 482.31 110.676C479.574 107.308 476.018 105.629 471.624 105.629C467.229 105.629 463.554 107.328 460.777 110.726C457.991 114.124 456.613 118.531 456.613 123.948C456.613 129.365 457.991 134.012 460.777 137.49C463.554 140.968 467.129 142.707 471.514 142.707C475.898 142.707 479.564 140.948 482.31 137.44Z" fill="white"/>
<path d="M567.913 153.241H512.572V76.4658H566.934V89.9579H527.584V107.508H563.539V120.78H527.584V139.639H567.913V153.241Z" fill="white"/>
<path d="M579.449 150.163C575.404 147.164 573.366 142.957 573.366 137.55C573.366 131.334 575.703 126.946 580.387 124.388C585.062 121.829 591.124 120.11 598.585 119.231C602.46 118.721 605.266 118.301 607.024 117.972C608.772 117.642 610.23 117.092 611.399 116.333C612.567 115.573 613.157 114.484 613.157 113.094C613.157 110.616 612.238 108.677 610.42 107.288C608.592 105.909 605.996 105.209 602.63 105.209C599.054 105.209 596.108 106.089 593.811 107.838C591.514 109.586 590.175 111.885 589.816 114.743H574.685C575.124 110.576 576.602 106.858 579.119 103.61C581.646 100.362 584.952 97.8134 589.047 95.9845C593.132 94.1656 597.736 93.2461 602.849 93.2461C610.81 93.2461 616.952 95.145 621.256 98.9527C625.561 102.76 627.718 107.798 627.718 114.094V139.419C627.718 141.108 628.637 141.947 630.455 141.947H633.521V153.251H626.84C623.983 153.251 621.626 152.741 619.768 151.712C617.911 150.682 616.612 149.183 615.883 147.214C615.594 146.705 615.344 146.005 615.114 145.126C611.459 151.492 604.987 154.67 595.718 154.67C588.927 154.67 583.504 153.181 579.439 150.183L579.449 150.163ZM609.092 140.288C611.798 138.32 613.147 135.651 613.147 132.283V123.838C612.268 125.377 610.829 126.457 608.822 127.066C606.804 127.696 603.978 128.255 600.323 128.775C596.158 129.355 593.122 130.124 591.224 131.074C589.326 132.023 588.378 133.742 588.378 136.221C588.378 138.489 589.266 140.228 591.064 141.438C592.862 142.647 595.509 143.247 599.014 143.247C603.029 143.247 606.395 142.257 609.092 140.288Z" fill="white"/>
<path d="M639.475 153.241V95.1152H651.53L653.387 106.748C655.285 102.651 657.922 99.5626 661.277 97.4739C664.643 95.3951 668.698 94.3457 673.442 94.3457H675.849V108.817H673.442C667.45 108.817 662.796 110.276 659.47 113.205C656.154 116.123 654.486 120.22 654.486 125.487V153.231H639.475V153.241Z" fill="white"/>
<path d="M711.475 153.241C704.823 153.241 699.75 151.692 696.244 148.583C692.728 145.465 690.98 140.918 690.98 134.932V107.728H681.223V95.1149H690.98V75.2666H705.992V95.1149H720.574V107.728H705.992V133.502C705.992 135.841 706.561 137.62 707.7 138.819C708.838 140.019 710.526 140.628 712.793 140.628H719.365V153.241H711.485H711.475Z" fill="white"/>
<path d="M726.066 153.241V70.9893H740.977V100.712C742.945 98.4431 745.461 96.6342 748.528 95.285C751.604 93.9258 754.96 93.2462 758.615 93.2462C764.747 93.2462 769.681 95.205 773.407 99.1227C777.132 103.03 779 108.277 779 114.853V153.241H764.088V115.513C764.088 112.725 763.199 110.486 761.402 108.767C759.614 107.058 757.187 106.189 754.111 106.189C750.236 106.189 747.079 107.308 744.633 109.537C742.186 111.765 740.967 114.634 740.967 118.152V153.241H726.056H726.066Z" fill="white"/>
<path d="M113 127.126C120.799 127.126 127.121 120.804 127.121 113.005C127.121 105.207 120.799 98.8848 113 98.8848C105.201 98.8848 98.8789 105.207 98.8789 113.005C98.8789 120.804 105.201 127.126 113 127.126Z" fill="white"/>
<path d="M0.65773 79.771C-0.219243 80.6479 -0.219243 82.063 0.65773 82.9399C1.5347 83.8168 2.94982 83.8168 3.82679 82.9399C4.70377 82.063 4.70377 80.6479 3.82679 79.771C2.94982 78.894 1.5347 78.894 0.65773 79.771Z" fill="#5256BE"/>
<path d="M18.0576 68.8884C19.9124 68.8884 21.416 67.3849 21.416 65.5301C21.416 63.6754 19.9124 62.1719 18.0576 62.1719C16.2028 62.1719 14.6992 63.6754 14.6992 65.5301C14.6992 67.3849 16.2028 68.8884 18.0576 68.8884Z" fill="#5256BE"/>
<path d="M37.0522 52.8751C38.7961 51.1312 38.7961 48.2911 37.0522 46.5472C35.3082 44.8033 32.468 44.8033 30.724 46.5472C28.98 48.2911 28.98 51.1312 30.724 52.8751C32.468 54.619 35.3082 54.619 37.0522 52.8751Z" fill="#5256BE"/>
<path d="M52.8676 37.0606C54.6116 35.3167 54.6116 32.4766 52.8676 30.7327C51.1236 28.9888 48.2834 28.9888 46.5394 30.7327C44.7955 32.4766 44.7955 35.3167 46.5394 37.0606C48.2834 38.8045 51.1236 38.8045 52.8676 37.0606Z" fill="#5256BE"/>
<path d="M65.5234 21.4245C67.3782 21.4245 68.8819 19.921 68.8819 18.0663C68.8819 16.2116 67.3782 14.708 65.5234 14.708C63.6686 14.708 62.165 16.2116 62.165 18.0663C62.165 19.921 63.6686 21.4245 65.5234 21.4245Z" fill="#5256BE"/>
<path d="M82.9332 3.82662C83.8102 2.94969 83.8102 1.53464 82.9332 0.657701C82.0563 -0.219234 80.6411 -0.219234 79.7642 0.657701C78.8872 1.53464 78.8872 2.94969 79.7642 3.82662C80.6411 4.70356 82.0563 4.70356 82.9332 3.82662Z" fill="#5256BE"/>
<path d="M143.056 222.173C142.179 223.05 142.179 224.465 143.056 225.342C143.933 226.219 145.348 226.219 146.225 225.342C147.102 224.465 147.102 223.05 146.225 222.173C145.348 221.296 143.933 221.296 143.056 222.173Z" fill="#5256BE"/>
<path d="M160.467 211.292C162.322 211.292 163.825 209.788 163.825 207.933C163.825 206.079 162.322 204.575 160.467 204.575C158.612 204.575 157.108 206.079 157.108 207.933C157.108 209.788 158.612 211.292 160.467 211.292Z" fill="#5256BE"/>
<path d="M173.122 188.95C171.378 190.693 171.378 193.533 173.122 195.277C174.866 197.021 177.707 197.021 179.451 195.277C181.195 193.533 181.195 190.693 179.451 188.95C177.707 187.206 174.866 187.206 173.122 188.95Z" fill="#5256BE"/>
<path d="M188.948 173.125C187.204 174.869 187.204 177.709 188.948 179.453C190.692 181.197 193.532 181.197 195.276 179.453C197.02 177.709 197.02 174.869 195.276 173.125C193.532 171.381 190.692 171.381 188.948 173.125Z" fill="#5256BE"/>
<path d="M207.933 163.828C209.787 163.828 211.291 162.324 211.291 160.47C211.291 158.615 209.787 157.111 207.933 157.111C206.078 157.111 204.574 158.615 204.574 160.47C204.574 162.324 206.078 163.828 207.933 163.828Z" fill="#5256BE"/>
<path d="M222.173 143.06C221.296 143.937 221.296 145.352 222.173 146.229C223.05 147.106 224.465 147.106 225.342 146.229C226.219 145.352 226.219 143.937 225.342 143.06C224.465 142.183 223.05 142.183 222.173 143.06Z" fill="#5256BE"/>
<path d="M0.65773 111.421C-0.219243 112.298 -0.219243 113.713 0.65773 114.59C1.5347 115.467 2.94982 115.467 3.82679 114.59C4.70377 113.713 4.70377 112.298 3.82679 111.421C2.94982 110.544 1.5347 110.544 0.65773 111.421Z" fill="#5256BE"/>
<path d="M0.65773 143.06C-0.219243 143.937 -0.219243 145.352 0.65773 146.229C1.5347 147.106 2.94982 147.106 3.82679 146.229C4.70377 145.352 4.70377 143.937 3.82679 143.06C2.94982 142.183 1.5347 142.183 0.65773 143.06Z" fill="#5256BE"/>
<path d="M14.8988 125.66C13.1548 127.404 13.1548 130.244 14.8988 131.988C16.6428 133.732 19.483 133.732 21.227 131.988C22.9709 130.244 22.9709 127.404 21.227 125.66C19.483 123.917 16.6428 123.917 14.8988 125.66Z" fill="#5256BE"/>
<path d="M39.424 118.536C42.4834 115.476 42.4834 110.524 39.424 107.464C36.3645 104.405 31.4116 104.405 28.3522 107.464C25.2928 110.524 25.2928 115.476 28.3522 118.536C31.4116 121.595 36.3645 121.595 39.424 118.536Z" fill="#5256BE"/>
<path d="M18.0576 163.828C19.9124 163.828 21.416 162.324 21.416 160.47C21.416 158.615 19.9124 157.111 18.0576 157.111C16.2028 157.111 14.6992 158.615 14.6992 160.47C14.6992 162.324 16.2028 163.828 18.0576 163.828Z" fill="#5256BE"/>
<path d="M33.8828 151.361C37.5924 151.361 40.5997 148.354 40.5997 144.644C40.5997 140.935 37.5924 137.928 33.8828 137.928C30.1732 137.928 27.166 140.935 27.166 144.644C27.166 148.354 30.1732 151.361 33.8828 151.361Z" fill="#5256BE"/>
<path d="M56.0366 135.147C59.5345 131.649 59.5345 125.989 56.0366 122.491C52.5387 118.994 46.8782 118.994 43.3803 122.491C39.8824 125.989 39.8824 131.649 43.3803 135.147C46.8782 138.645 52.5387 138.645 56.0366 135.147Z" fill="#5256BE"/>
<path d="M30.7142 173.125C28.9703 174.869 28.9703 177.709 30.7142 179.453C32.4582 181.197 35.2984 181.197 37.0424 179.453C38.7864 177.709 38.7864 174.869 37.0424 173.125C35.2984 171.381 32.4582 171.381 30.7142 173.125Z" fill="#5256BE"/>
<path d="M49.708 167.186C53.4176 167.186 56.4248 164.179 56.4248 160.469C56.4248 156.76 53.4176 153.753 49.708 153.753C45.9984 153.753 42.9912 156.76 42.9912 160.469C42.9912 164.179 45.9984 167.186 49.708 167.186Z" fill="#5256BE"/>
<path d="M65.5242 154.709C71.0831 154.709 75.5895 150.203 75.5895 144.644C75.5895 139.085 71.0831 134.579 65.5242 134.579C59.9654 134.579 55.459 139.085 55.459 144.644C55.459 150.203 59.9654 154.709 65.5242 154.709Z" fill="#5256BE"/>
<path d="M46.5394 188.95C44.7955 190.693 44.7955 193.533 46.5394 195.277C48.2834 197.021 51.1236 197.021 52.8676 195.277C54.6116 193.533 54.6116 190.693 52.8676 188.95C51.1236 187.206 48.2834 187.206 46.5394 188.95Z" fill="#5256BE"/>
<path d="M65.5235 183C69.2331 183 72.2403 179.993 72.2403 176.284C72.2403 172.574 69.2331 169.567 65.5235 169.567C61.8139 169.567 58.8066 172.574 58.8066 176.284C58.8066 179.993 61.8139 183 65.5235 183Z" fill="#5256BE"/>
<path d="M81.3494 170.534C86.9083 170.534 91.4147 166.028 91.4147 160.469C91.4147 154.91 86.9083 150.404 81.3494 150.404C75.7905 150.404 71.2842 154.91 71.2842 160.469C71.2842 166.028 75.7905 170.534 81.3494 170.534Z" fill="#5256BE"/>
<path d="M65.5234 211.292C67.3782 211.292 68.8819 209.788 68.8819 207.933C68.8819 206.079 67.3782 204.575 65.5234 204.575C63.6686 204.575 62.165 206.079 62.165 207.933C62.165 209.788 63.6686 211.292 65.5234 211.292Z" fill="#5256BE"/>
<path d="M81.3487 198.825C85.0582 198.825 88.0655 195.818 88.0655 192.108C88.0655 188.399 85.0582 185.392 81.3487 185.392C77.6391 185.392 74.6318 188.399 74.6318 192.108C74.6318 195.818 77.6391 198.825 81.3487 198.825Z" fill="#5256BE"/>
<path d="M97.1747 185.232C102.117 185.232 106.124 181.226 106.124 176.284C106.124 171.341 102.117 167.335 97.1747 167.335C92.2322 167.335 88.2256 171.341 88.2256 176.284C88.2256 181.226 92.2322 185.232 97.1747 185.232Z" fill="#5256BE"/>
<path d="M128.815 58.665C133.758 58.665 137.764 54.6585 137.764 49.7163C137.764 44.7741 133.758 40.7676 128.815 40.7676C123.873 40.7676 119.866 44.7741 119.866 49.7163C119.866 54.6585 123.873 58.665 128.815 58.665Z" fill="#5256BE"/>
<path d="M144.64 75.5954C150.199 75.5954 154.706 71.0893 154.706 65.5306C154.706 59.972 150.199 55.4658 144.64 55.4658C139.082 55.4658 134.575 59.972 134.575 65.5306C134.575 71.0893 139.082 75.5954 144.64 75.5954Z" fill="#5256BE"/>
<path d="M160.466 91.4207C166.025 91.4207 170.531 86.9145 170.531 81.3558C170.531 75.7972 166.025 71.291 160.466 71.291C154.907 71.291 150.4 75.7972 150.4 81.3558C150.4 86.9145 154.907 91.4207 160.466 91.4207Z" fill="#5256BE"/>
<path d="M176.282 106.129C181.225 106.129 185.231 102.122 185.231 97.1802C185.231 92.2379 181.225 88.2314 176.282 88.2314C171.34 88.2314 167.333 92.2379 167.333 97.1802C167.333 102.122 171.34 106.129 176.282 106.129Z" fill="#5256BE"/>
<path d="M155.494 123.019C159.679 125.102 164.891 124.405 168.379 120.917C172.744 116.552 172.744 109.467 168.379 105.092C164.891 101.604 159.679 100.907 155.494 102.989C157.985 98.3357 157.277 92.4065 153.351 88.4802C149.833 84.9625 144.721 84.0357 140.346 85.6601C141.98 81.2853 141.043 76.1732 137.526 72.6555C133.599 68.7292 127.67 68.0118 123.016 70.513C125.098 66.3276 124.401 61.1159 120.913 57.628C116.548 53.2633 109.462 53.2633 105.088 57.628C101.6 61.1159 100.902 66.3276 102.985 70.513C98.3309 68.0217 92.4013 68.7292 88.4749 72.6555C84.957 76.1732 84.0302 81.2853 85.6546 85.6601C81.2797 84.0258 76.1674 84.9625 72.6495 88.4802C68.723 92.4065 68.0055 98.3357 70.5069 102.989C66.3213 100.907 61.1093 101.604 57.6214 105.092C53.2564 109.457 53.2564 116.542 57.6214 120.917C61.1093 124.405 66.3213 125.102 70.5069 123.019C68.0155 127.673 68.723 133.602 72.6495 137.529C76.1674 141.046 81.2797 141.973 85.6546 140.349C84.0202 144.724 84.957 149.836 88.4749 153.353C92.4013 157.28 98.3309 157.997 102.985 155.496C100.902 159.681 101.6 164.893 105.088 168.381C109.452 172.746 116.538 172.746 120.913 168.381C124.401 164.893 125.098 159.681 123.016 155.496C127.67 157.987 133.599 157.28 137.526 153.353C141.043 149.836 141.97 144.724 140.346 140.349C144.721 141.983 149.833 141.046 153.351 137.529C157.277 133.602 157.995 127.673 155.494 123.019ZM135.941 120.13C132.423 123.647 131.496 128.759 133.121 133.134C128.746 131.5 123.634 132.437 120.116 135.954C116.189 139.881 115.472 145.81 117.973 150.464C114.844 148.909 111.157 148.909 108.027 150.464C110.519 145.81 109.811 139.881 105.885 135.954C102.367 132.437 97.2546 131.51 92.8797 133.134C94.514 128.759 93.5773 123.647 90.0594 120.13C86.133 116.203 80.2034 115.486 75.5495 117.987C77.1041 114.858 77.1041 111.171 75.5495 108.042C80.2034 110.533 86.133 109.826 90.0594 105.899C93.5773 102.382 94.5041 97.2695 92.8797 92.8948C97.2546 94.5291 102.367 93.5923 105.885 90.0746C109.811 86.1483 110.529 80.2191 108.027 75.5653C111.157 77.1199 114.844 77.1199 117.973 75.5653C115.482 80.2191 116.189 86.1483 120.116 90.0746C123.634 93.5923 128.746 94.5191 133.121 92.8948C131.486 97.2695 132.423 102.382 135.941 105.899C139.868 109.826 145.797 110.543 150.451 108.042C148.896 111.171 148.896 114.858 150.451 117.987C145.797 115.496 139.868 116.203 135.941 120.13Z" fill="#5256BE"/>
<path d="M113 41.7248C117.326 41.7248 120.833 38.218 120.833 33.8922C120.833 29.5664 117.326 26.0596 113 26.0596C108.674 26.0596 105.167 29.5664 105.167 33.8922C105.167 38.218 108.674 41.7248 113 41.7248Z" fill="#5256BE"/>
<path d="M79.7642 222.173C78.8872 223.05 78.8872 224.465 79.7642 225.342C80.6411 226.219 82.0563 226.219 82.9332 225.342C83.8102 224.465 83.8102 223.05 82.9332 222.173C82.0563 221.296 80.6411 221.296 79.7642 222.173Z" fill="#5256BE"/>
<path d="M94.0053 204.765C92.2613 206.509 92.2613 209.349 94.0053 211.093C95.7492 212.837 98.5894 212.837 100.333 211.093C102.077 209.349 102.077 206.509 100.333 204.765C98.5894 203.021 95.7492 203.021 94.0053 204.765Z" fill="#5256BE"/>
<path d="M107.459 186.568C104.399 189.627 104.399 194.58 107.459 197.639C110.518 200.699 115.471 200.699 118.53 197.639C121.59 194.58 121.59 189.627 118.53 186.568C115.471 183.509 110.518 183.509 107.459 186.568Z" fill="#5256BE"/>
<path d="M128.815 185.232C133.758 185.232 137.764 181.226 137.764 176.284C137.764 171.341 133.758 167.335 128.815 167.335C123.873 167.335 119.866 171.341 119.866 176.284C119.866 181.226 123.873 185.232 128.815 185.232Z" fill="#5256BE"/>
<path d="M144.64 170.534C150.199 170.534 154.706 166.028 154.706 160.469C154.706 154.91 150.199 150.404 144.64 150.404C139.082 150.404 134.575 154.91 134.575 160.469C134.575 166.028 139.082 170.534 144.64 170.534Z" fill="#5256BE"/>
<path d="M160.466 154.709C166.025 154.709 170.531 150.203 170.531 144.644C170.531 139.085 166.025 134.579 160.466 134.579C154.907 134.579 150.4 139.085 150.4 144.644C150.4 150.203 154.907 154.709 160.466 154.709Z" fill="#5256BE"/>
<path d="M169.954 122.491C166.456 125.989 166.456 131.649 169.954 135.147C173.451 138.645 179.112 138.645 182.61 135.147C186.108 131.649 186.108 125.989 182.61 122.491C179.112 118.994 173.451 118.994 169.954 122.491Z" fill="#5256BE"/>
<path d="M49.7089 106.129C54.6513 106.129 58.658 102.122 58.658 97.1802C58.658 92.2379 54.6513 88.2314 49.7089 88.2314C44.7664 88.2314 40.7598 92.2379 40.7598 97.1802C40.7598 102.122 44.7664 106.129 49.7089 106.129Z" fill="#5256BE"/>
<path d="M65.5242 91.4207C71.0831 91.4207 75.5895 86.9145 75.5895 81.3558C75.5895 75.7972 71.0831 71.291 65.5242 71.291C59.9654 71.291 55.459 75.7972 55.459 81.3558C55.459 86.9145 59.9654 91.4207 65.5242 91.4207Z" fill="#5256BE"/>
<path d="M81.3494 75.5954C86.9083 75.5954 91.4147 71.0893 91.4147 65.5306C91.4147 59.972 86.9083 55.4658 81.3494 55.4658C75.7905 55.4658 71.2842 59.972 71.2842 65.5306C71.2842 71.0893 75.7905 75.5954 81.3494 75.5954Z" fill="#5256BE"/>
<path d="M97.1747 58.665C102.117 58.665 106.124 54.6585 106.124 49.7163C106.124 44.7741 102.117 40.7676 97.1747 40.7676C92.2322 40.7676 88.2256 44.7741 88.2256 49.7163C88.2256 54.6585 92.2322 58.665 97.1747 58.665Z" fill="#5256BE"/>
<path d="M192.107 120.838C196.433 120.838 199.94 117.331 199.94 113.005C199.94 108.68 196.433 105.173 192.107 105.173C187.781 105.173 184.274 108.68 184.274 113.005C184.274 117.331 187.781 120.838 192.107 120.838Z" fill="#5256BE"/>
<path d="M111.416 222.173C110.539 223.05 110.539 224.465 111.416 225.342C112.293 226.219 113.708 226.219 114.585 225.342C115.462 224.465 115.462 223.05 114.585 222.173C113.708 221.296 112.293 221.296 111.416 222.173Z" fill="#5256BE"/>
<path d="M125.657 204.765C123.913 206.509 123.913 209.349 125.657 211.093C127.401 212.837 130.241 212.837 131.985 211.093C133.729 209.349 133.729 206.509 131.985 204.765C130.241 203.021 127.401 203.021 125.657 204.765Z" fill="#5256BE"/>
<path d="M144.642 198.825C148.351 198.825 151.358 195.818 151.358 192.108C151.358 188.399 148.351 185.392 144.642 185.392C140.932 185.392 137.925 188.399 137.925 192.108C137.925 195.818 140.932 198.825 144.642 198.825Z" fill="#5256BE"/>
<path d="M160.467 183C164.176 183 167.184 179.993 167.184 176.284C167.184 172.574 164.176 169.567 160.467 169.567C156.757 169.567 153.75 172.574 153.75 176.284C153.75 179.993 156.757 183 160.467 183Z" fill="#5256BE"/>
<path d="M176.282 167.186C179.992 167.186 182.999 164.179 182.999 160.469C182.999 156.76 179.992 153.753 176.282 153.753C172.573 153.753 169.565 156.76 169.565 160.469C169.565 164.179 172.573 167.186 176.282 167.186Z" fill="#5256BE"/>
<path d="M187.363 139.901C184.742 142.522 184.742 146.777 187.363 149.398C189.984 152.019 194.239 152.019 196.86 149.398C199.481 146.777 199.481 142.522 196.86 139.901C194.239 137.28 189.984 137.28 187.363 139.901Z" fill="#5256BE"/>
<path d="M204.763 125.66C203.019 127.404 203.019 130.244 204.763 131.988C206.507 133.732 209.347 133.732 211.091 131.988C212.835 130.244 212.835 127.404 211.091 125.66C209.347 123.917 206.507 123.917 204.763 125.66Z" fill="#5256BE"/>
<path d="M14.8988 94.0111C13.1548 95.755 13.1548 98.595 14.8988 100.339C16.6428 102.083 19.483 102.083 21.227 100.339C22.9709 98.595 22.9709 95.755 21.227 94.0111C19.483 92.2671 16.6428 92.2671 14.8988 94.0111Z" fill="#5256BE"/>
<path d="M33.8828 88.0727C37.5924 88.0727 40.5997 85.0656 40.5997 81.3562C40.5997 77.6467 37.5924 74.6396 33.8828 74.6396C30.1732 74.6396 27.166 77.6467 27.166 81.3562C27.166 85.0656 30.1732 88.0727 33.8828 88.0727Z" fill="#5256BE"/>
<path d="M49.708 72.2465C53.4176 72.2465 56.4248 69.2394 56.4248 65.53C56.4248 61.8206 53.4176 58.8135 49.708 58.8135C45.9984 58.8135 42.9912 61.8206 42.9912 65.53C42.9912 69.2394 45.9984 72.2465 49.708 72.2465Z" fill="#5256BE"/>
<path d="M65.5235 56.433C69.2331 56.433 72.2403 53.426 72.2403 49.7165C72.2403 46.0071 69.2331 43 65.5235 43C61.8139 43 58.8066 46.0071 58.8066 49.7165C58.8066 53.426 61.8139 56.433 65.5235 56.433Z" fill="#5256BE"/>
<path d="M86.0928 38.6353C88.7138 36.0144 88.7138 31.7593 86.0928 29.1385C83.4719 26.5176 79.2166 26.5176 76.5956 29.1385C73.9746 31.7593 73.9746 36.0144 76.5956 38.6353C79.2166 41.2561 83.4719 41.2561 86.0928 38.6353Z" fill="#5256BE"/>
<path d="M100.333 21.2354C102.077 19.4915 102.077 16.6514 100.333 14.9075C98.5894 13.1636 95.7492 13.1636 94.0053 14.9075C92.2613 16.6514 92.2613 19.4915 94.0053 21.2354C95.7492 22.9793 98.5894 22.9793 100.333 21.2354Z" fill="#5256BE"/>
<path d="M113 4.49409C114.238 4.49409 115.242 3.49024 115.242 2.25193C115.242 1.01362 114.238 0.00976562 113 0.00976562C111.762 0.00976562 110.758 1.01362 110.758 2.25193C110.758 3.49024 111.762 4.49409 113 4.49409Z" fill="#5256BE"/>
<path d="M131.985 21.2354C133.729 19.4915 133.729 16.6514 131.985 14.9075C130.241 13.1636 127.401 13.1636 125.657 14.9075C123.913 16.6514 123.913 19.4915 125.657 21.2354C127.401 22.9793 130.241 22.9793 131.985 21.2354Z" fill="#5256BE"/>
<path d="M149.385 38.6353C152.006 36.0144 152.006 31.7593 149.385 29.1385C146.764 26.5176 142.509 26.5176 139.888 29.1385C137.267 31.7593 137.267 36.0144 139.888 38.6353C142.509 41.2561 146.764 41.2561 149.385 38.6353Z" fill="#5256BE"/>
<path d="M160.467 56.433C164.176 56.433 167.184 53.426 167.184 49.7165C167.184 46.0071 164.176 43 160.467 43C156.757 43 153.75 46.0071 153.75 49.7165C153.75 53.426 156.757 56.433 160.467 56.433Z" fill="#5256BE"/>
<path d="M176.282 72.2465C179.992 72.2465 182.999 69.2394 182.999 65.53C182.999 61.8206 179.992 58.8135 176.282 58.8135C172.573 58.8135 169.565 61.8206 169.565 65.53C169.565 69.2394 172.573 72.2465 176.282 72.2465Z" fill="#5256BE"/>
<path d="M196.86 86.0991C199.481 83.4783 199.481 79.2232 196.86 76.6023C194.239 73.9815 189.984 73.9815 187.363 76.6023C184.742 79.2232 184.742 83.4783 187.363 86.0991C189.984 88.72 194.239 88.72 196.86 86.0991Z" fill="#5256BE"/>
<path d="M204.763 94.0111C203.019 95.755 203.019 98.595 204.763 100.339C206.507 102.083 209.347 102.083 211.091 100.339C212.835 98.595 212.835 95.755 211.091 94.0111C209.347 92.2671 206.507 92.2671 204.763 94.0111Z" fill="#5256BE"/>
<path d="M223.758 115.248C224.996 115.248 226 114.244 226 113.006C226 111.768 224.996 110.764 223.758 110.764C222.52 110.764 221.516 111.768 221.516 113.006C221.516 114.244 222.52 115.248 223.758 115.248Z" fill="#5256BE"/>
<path d="M146.225 3.82662C147.102 2.94969 147.102 1.53464 146.225 0.657701C145.348 -0.219234 143.933 -0.219234 143.056 0.657701C142.179 1.53464 142.179 2.94969 143.056 3.82662C143.933 4.70356 145.348 4.70356 146.225 3.82662Z" fill="#5256BE"/>
<path d="M160.467 21.4245C162.322 21.4245 163.825 19.921 163.825 18.0663C163.825 16.2116 162.322 14.708 160.467 14.708C158.612 14.708 157.108 16.2116 157.108 18.0663C157.108 19.921 158.612 21.4245 160.467 21.4245Z" fill="#5256BE"/>
<path d="M179.451 37.0606C181.195 35.3167 181.195 32.4766 179.451 30.7327C177.707 28.9888 174.866 28.9888 173.122 30.7327C171.378 32.4766 171.378 35.3167 173.122 37.0606C174.866 38.8045 177.707 38.8045 179.451 37.0606Z" fill="#5256BE"/>
<path d="M195.276 52.8751C197.02 51.1312 197.02 48.2911 195.276 46.5472C193.532 44.8033 190.692 44.8033 188.948 46.5472C187.204 48.2911 187.204 51.1312 188.948 52.8751C190.692 54.619 193.532 54.619 195.276 52.8751Z" fill="#5256BE"/>
<path d="M207.933 68.8884C209.787 68.8884 211.291 67.3849 211.291 65.5301C211.291 63.6754 209.787 62.1719 207.933 62.1719C206.078 62.1719 204.574 63.6754 204.574 65.5301C204.574 67.3849 206.078 68.8884 207.933 68.8884Z" fill="#5256BE"/>
<path d="M225.332 82.9399C226.209 82.063 226.209 80.6479 225.332 79.771C224.455 78.894 223.04 78.894 222.163 79.771C221.286 80.6479 221.286 82.063 222.163 82.9399C223.04 83.8168 224.455 83.8168 225.332 82.9399Z" fill="#5256BE"/>
</g>
<defs>
<clipPath id="clip0_887_3765">
<rect width="779" height="226" fill="white"/>
</clipPath>
</defs>
</svg>
